<?xml version="1.0" encoding="UTF-8"?>
<svg xmlns="http://www.w3.org/2000/svg" xmlns:xlink="http://www.w3.org/1999/xlink" width="150pt" height="149.999998pt" viewBox="0 0 150 149.999998" version="1.2">
<defs>
<clipPath id="clip1">
  <path d="M 35 75 L 115 75 L 115 140.855469 L 35 140.855469 Z M 35 75 "/>
</clipPath>
<clipPath id="clip2">
  <path d="M 29.535156 106 L 53 106 L 53 140.855469 L 29.535156 140.855469 Z M 29.535156 106 "/>
</clipPath>
<clipPath id="clip3">
  <path d="M 97 106 L 120.113281 106 L 120.113281 140.855469 L 97 140.855469 Z M 97 106 "/>
</clipPath>
<clipPath id="clip4">
  <path d="M 71 126 L 78 126 L 78 140.855469 L 71 140.855469 Z M 71 126 "/>
</clipPath>
<clipPath id="clip5">
  <path d="M 29.535156 86 L 120.113281 86 L 120.113281 140.855469 L 29.535156 140.855469 Z M 29.535156 86 "/>
</clipPath>
<clipPath id="clip6">
  <path d="M 40 101 L 109 101 L 109 140.855469 L 40 140.855469 Z M 40 101 "/>
</clipPath>
<clipPath id="clip7">
  <path d="M 52 21.605469 L 98 21.605469 L 98 56 L 52 56 Z M 52 21.605469 "/>
</clipPath>
</defs>
<g id="surface1">
<path style=" stroke:none;fill-rule:nonzero;fill:rgb(100%,65.489197%,14.898682%);fill-opacity:1;" d="M 97.449219 54.261719 C 97.449219 56.613281 95.546875 58.519531 93.207031 58.519531 C 90.863281 58.519531 88.964844 56.613281 88.964844 54.261719 C 88.964844 51.90625 90.863281 50 93.207031 50 C 95.546875 50 97.449219 51.90625 97.449219 54.261719 "/>
<path style=" stroke:none;fill-rule:nonzero;fill:rgb(100%,65.489197%,14.898682%);fill-opacity:1;" d="M 60.683594 54.261719 C 60.683594 56.613281 58.785156 58.519531 56.441406 58.519531 C 54.101562 58.519531 52.199219 56.613281 52.199219 54.261719 C 52.199219 51.90625 54.101562 50 56.441406 50 C 58.785156 50 60.683594 51.90625 60.683594 54.261719 "/>
<g clip-path="url(#clip1)" clip-rule="nonzero">
<path style=" stroke:none;fill-rule:nonzero;fill:rgb(29.798889%,68.629456%,31.369019%);fill-opacity:1;" d="M 100.277344 140.867188 L 100.277344 115.3125 L 113.566406 115.3125 L 114.417969 106.792969 C 111.589844 86.914062 95.128906 75.558594 74.824219 75.558594 C 54.519531 75.558594 38.058594 86.914062 35.230469 106.792969 L 38.058594 115.3125 L 49.371094 115.3125 L 49.371094 140.867188 Z M 100.277344 140.867188 "/>
</g>
<path style=" stroke:none;fill-rule:nonzero;fill:rgb(100%,59.609985%,0%);fill-opacity:1;" d="M 74.824219 86.914062 C 63.511719 86.914062 63.511719 75.558594 63.511719 75.558594 L 63.511719 64.199219 L 86.136719 64.199219 L 86.136719 75.558594 C 86.136719 75.558594 86.136719 86.914062 74.824219 86.914062 Z M 74.824219 86.914062 "/>
<path style=" stroke:none;fill-rule:nonzero;fill:rgb(10.5896%,36.859131%,12.548828%);fill-opacity:1;" d="M 74.824219 92.59375 C 85.628906 92.59375 90.453125 84.917969 91.542969 78.414062 C 89.78125 77.753906 87.949219 77.195312 86.039062 76.765625 C 85.671875 79.683594 83.859375 86.914062 74.824219 86.914062 C 65.789062 86.914062 63.976562 79.683594 63.609375 76.765625 C 61.699219 77.195312 59.867188 77.753906 58.105469 78.414062 C 59.195312 84.917969 64.019531 92.59375 74.824219 92.59375 Z M 74.824219 92.59375 "/>
<g clip-path="url(#clip2)" clip-rule="nonzero">
<path style=" stroke:none;fill-rule:nonzero;fill:rgb(100%,71.759033%,30.198669%);fill-opacity:1;" d="M 46.542969 126.667969 L 52.199219 109.632812 L 35.230469 106.792969 L 29.574219 123.832031 L 29.574219 129.507812 L 46.542969 140.867188 Z M 46.542969 126.667969 "/>
</g>
<path style=" stroke:none;fill-rule:nonzero;fill:rgb(100%,71.759033%,30.198669%);fill-opacity:1;" d="M 94.621094 43.414062 C 94.621094 26.722656 55.027344 32.546875 55.027344 43.414062 L 55.027344 55.878906 C 55.027344 66.742188 63.886719 75.558594 74.824219 75.558594 C 85.757812 75.558594 94.621094 66.742188 94.621094 55.875 Z M 94.621094 43.414062 "/>
<g clip-path="url(#clip3)" clip-rule="nonzero">
<path style=" stroke:none;fill-rule:nonzero;fill:rgb(100%,71.759033%,30.198669%);fill-opacity:1;" d="M 120.074219 123.832031 L 120.074219 129.507812 L 103.105469 140.867188 L 103.105469 126.667969 L 97.449219 109.632812 L 114.417969 106.792969 Z M 120.074219 123.832031 "/>
</g>
<g clip-path="url(#clip4)" clip-rule="nonzero">
<path style="fill:none;stroke-width:2;stroke-linecap:butt;stroke-linejoin:miter;stroke:rgb(47.44873%,33.329773%,28.239441%);stroke-opacity:1;stroke-miterlimit:4;" d="M 24.00005 44.999893 L 24.00005 40.9995 " transform="matrix(2.82804,0,0,2.839564,6.951107,13.087092)"/>
</g>
<g clip-path="url(#clip5)" clip-rule="nonzero">
<path style="fill:none;stroke-width:2;stroke-linecap:butt;stroke-linejoin:miter;stroke:rgb(47.44873%,33.329773%,28.239441%);stroke-opacity:1;stroke-miterlimit:4;" d="M 34.000349 37.000482 L 24.00005 40.9995 L 13.999751 37.000482 " transform="matrix(2.82804,0,0,2.839564,6.951107,13.087092)"/>
</g>
<g clip-path="url(#clip6)" clip-rule="nonzero">
<path style=" stroke:none;fill-rule:nonzero;fill:rgb(36.468506%,25.099182%,21.569824%);fill-opacity:1;" d="M 60.667969 140.867188 C 54.007812 137.945312 49.371094 132.941406 49.371094 126.667969 C 49.371094 116.492188 61.570312 109.632812 74.824219 109.632812 C 88.082031 109.632812 100.277344 116.492188 100.277344 126.667969 C 100.277344 132.941406 95.636719 137.945312 88.980469 140.867188 L 103.105469 140.867188 C 106.640625 136.886719 108.761719 132.058594 108.761719 126.667969 C 108.761719 111.796875 92.757812 101.113281 74.824219 101.113281 C 56.890625 101.113281 40.886719 111.796875 40.886719 126.667969 C 40.886719 132.058594 43.007812 136.886719 46.542969 140.867188 Z M 60.667969 140.867188 "/>
</g>
<path style=" stroke:none;fill-rule:nonzero;fill:rgb(30.589294%,20.388794%,18.03894%);fill-opacity:1;" d="M 83.308594 129.507812 C 83.308594 129.882812 83.253906 130.25 83.144531 130.617188 C 83.035156 130.984375 82.875 131.339844 82.664062 131.683594 C 82.449219 132.027344 82.1875 132.355469 81.878906 132.664062 C 81.570312 132.972656 81.21875 133.261719 80.824219 133.523438 C 80.429688 133.789062 80 134.023438 79.539062 134.230469 C 79.074219 134.4375 78.585938 134.613281 78.070312 134.757812 C 77.554688 134.898438 77.027344 135.007812 76.480469 135.078125 C 75.933594 135.152344 75.382812 135.1875 74.824219 135.1875 C 74.265625 135.1875 73.714844 135.152344 73.167969 135.078125 C 72.621094 135.007812 72.09375 134.898438 71.578125 134.757812 C 71.0625 134.613281 70.574219 134.4375 70.109375 134.230469 C 69.648438 134.023438 69.21875 133.789062 68.824219 133.523438 C 68.429688 133.261719 68.078125 132.972656 67.769531 132.664062 C 67.460938 132.355469 67.199219 132.027344 66.984375 131.683594 C 66.773438 131.339844 66.613281 130.984375 66.503906 130.617188 C 66.394531 130.25 66.339844 129.882812 66.339844 129.507812 C 66.339844 129.136719 66.394531 128.765625 66.503906 128.402344 C 66.613281 128.035156 66.773438 127.679688 66.984375 127.335938 C 67.199219 126.992188 67.460938 126.664062 67.769531 126.355469 C 68.078125 126.042969 68.429688 125.757812 68.824219 125.492188 C 69.21875 125.230469 69.648438 124.996094 70.109375 124.789062 C 70.574219 124.578125 71.0625 124.40625 71.578125 124.261719 C 72.09375 124.121094 72.621094 124.011719 73.167969 123.9375 C 73.714844 123.867188 74.265625 123.832031 74.824219 123.832031 C 75.382812 123.832031 75.933594 123.867188 76.480469 123.9375 C 77.027344 124.011719 77.554688 124.121094 78.070312 124.261719 C 78.585938 124.40625 79.074219 124.578125 79.539062 124.789062 C 80 124.996094 80.429688 125.230469 80.824219 125.492188 C 81.21875 125.757812 81.570312 126.042969 81.878906 126.355469 C 82.1875 126.664062 82.449219 126.992188 82.664062 127.335938 C 82.875 127.679688 83.035156 128.035156 83.144531 128.402344 C 83.253906 128.765625 83.308594 129.136719 83.308594 129.507812 Z M 83.308594 129.507812 "/>
<g clip-path="url(#clip7)" clip-rule="nonzero">
<path style=" stroke:none;fill-rule:nonzero;fill:rgb(25.878906%,25.878906%,25.878906%);fill-opacity:1;" d="M 74.824219 21.605469 C 61.078125 21.605469 52.199219 33.851562 52.199219 44.8125 L 52.199219 50 L 57.855469 55.679688 L 57.855469 44.324219 L 83.875 35.804688 L 91.792969 44.324219 L 91.792969 55.679688 L 97.449219 50 L 97.449219 47.707031 C 97.449219 38.5625 95.101562 28.386719 83.875 26.144531 L 81.613281 21.605469 Z M 74.824219 21.605469 "/>
</g>
<path style=" stroke:none;fill-rule:nonzero;fill:rgb(47.059631%,27.839661%,9.799194%);fill-opacity:1;" d="M 80.480469 52.839844 C 80.480469 54.410156 81.746094 55.679688 83.308594 55.679688 C 84.871094 55.679688 86.136719 54.410156 86.136719 52.839844 C 86.136719 51.273438 84.871094 50 83.308594 50 C 81.746094 50 80.480469 51.273438 80.480469 52.839844 "/>
<path style=" stroke:none;fill-rule:nonzero;fill:rgb(47.059631%,27.839661%,9.799194%);fill-opacity:1;" d="M 63.511719 52.839844 C 63.511719 54.410156 64.777344 55.679688 66.339844 55.679688 C 67.902344 55.679688 69.167969 54.410156 69.167969 52.839844 C 69.167969 51.273438 67.902344 50 66.339844 50 C 64.777344 50 63.511719 51.273438 63.511719 52.839844 "/>
</g>
</svg>
