<?xml version="1.0" encoding="UTF-8"?>
<svg xmlns="http://www.w3.org/2000/svg" xmlns:xlink="http://www.w3.org/1999/xlink" width="150pt" height="149.999998pt" viewBox="0 0 150 149.999998" version="1.2">
<defs>
<clipPath id="clip1">
  <path d="M 52 129 L 94.75 129 L 94.75 136.910156 L 52 136.910156 Z M 52 129 "/>
</clipPath>
<clipPath id="clip2">
  <path d="M 67.351562 131.378906 L 94.75 131.378906 L 94.75 136.910156 L 67.351562 136.910156 Z M 67.351562 131.378906 "/>
</clipPath>
<clipPath id="clip3">
  <path d="M 45.738281 59.042969 L 100.53125 59.042969 L 100.53125 136.910156 L 45.738281 136.910156 Z M 45.738281 59.042969 "/>
</clipPath>
<clipPath id="clip4">
  <path d="M 86.835938 111.015625 L 96.878906 111.015625 L 96.878906 136.910156 L 86.835938 136.910156 Z M 86.835938 111.015625 "/>
</clipPath>
</defs>
<g id="surface1">
<g clip-path="url(#clip1)" clip-rule="nonzero">
<path style=" stroke:none;fill-rule:nonzero;fill:rgb(16.079712%,16.468811%,16.859436%);fill-opacity:1;" d="M 94.625 136.910156 L 94.746094 129.140625 L 73.265625 133.429688 L 72.867188 129.140625 L 52.042969 133.300781 L 52.015625 136.910156 L 94.625 136.910156 "/>
</g>
<g clip-path="url(#clip2)" clip-rule="nonzero">
<path style=" stroke:none;fill-rule:nonzero;fill:rgb(9.01947%,9.01947%,9.01947%);fill-opacity:1;" d="M 94.621094 136.910156 L 94.664062 134.425781 L 82.3125 131.621094 L 73.339844 133.414062 L 67.558594 136.910156 L 94.621094 136.910156 "/>
</g>
<g clip-path="url(#clip3)" clip-rule="nonzero">
<path style=" stroke:none;fill-rule:nonzero;fill:rgb(29.798889%,30.589294%,31.759644%);fill-opacity:1;" d="M 50.492188 107.300781 L 52.3125 108.835938 C 52.3125 108.835938 50.304688 111.460938 51.949219 113.027344 C 51.949219 113.027344 51.160156 116.003906 51.800781 118.179688 C 51.800781 118.179688 50.53125 128.191406 49.511719 136.910156 L 96.796875 136.910156 C 96.328125 131.507812 95.597656 125.40625 94.480469 121.066406 C 94.480469 121.066406 96.742188 116.496094 94.839844 114.882812 L 95.777344 110.628906 L 94.9375 106.875 C 96.488281 104.488281 94.9375 100.734375 94.9375 100.734375 C 99.671875 86.910156 100.515625 66.085938 100.515625 66.085938 C 99.660156 65.421875 98.164062 64.582031 98.164062 64.582031 C 92.523438 62.277344 73.949219 59.269531 73.949219 59.269531 C 67.179688 58.757812 48.003906 65.050781 48.003906 65.050781 C 46.59375 65.382812 45.933594 67.125 45.933594 67.125 C 45.933594 67.125 49.082031 94.121094 51.800781 101.414062 L 50.492188 107.300781 "/>
</g>
<g clip-path="url(#clip4)" clip-rule="nonzero">
<path style=" stroke:none;fill-rule:nonzero;fill:rgb(24.308777%,25.099182%,25.878906%);fill-opacity:1;" d="M 96.796875 136.910156 C 96.328125 131.507812 95.597656 125.40625 94.480469 121.066406 C 94.480469 121.066406 96.742188 116.496094 94.839844 114.882812 L 95.652344 111.195312 L 87.300781 111.796875 L 89.238281 118.308594 L 87.300781 121.066406 L 87.300781 135.707031 L 86.882812 136.910156 L 96.796875 136.910156 "/>
</g>
<path style=" stroke:none;fill-rule:nonzero;fill:rgb(24.308777%,25.099182%,25.878906%);fill-opacity:1;" d="M 75.382812 91.058594 L 73.949219 91.570312 C 75.136719 92.125 77.941406 95.078125 77.941406 95.078125 L 76.632812 92.984375 L 88.03125 78.804688 L 87.300781 75.992188 L 91.492188 76.320312 L 88.847656 62.0625 C 88.066406 61.894531 87.269531 61.726562 86.476562 61.566406 L 75.382812 91.058594 "/>
<path style=" stroke:none;fill-rule:nonzero;fill:rgb(17.649841%,18.03894%,18.818665%);fill-opacity:1;" d="M 50.496094 107.304688 L 52.3125 108.835938 C 52.3125 108.835938 50.304688 111.460938 51.949219 113.027344 C 51.949219 113.027344 51.160156 116.003906 51.800781 118.179688 C 51.800781 118.179688 51.792969 118.230469 51.785156 118.308594 L 55.890625 118.308594 C 55.890625 118.308594 70.8125 117.625 74.574219 115.574219 L 79.761719 115.574219 C 79.761719 115.574219 88.480469 116.742188 95.554688 117.609375 C 95.683594 116.546875 95.566406 115.5 94.839844 114.882812 L 95.777344 110.628906 L 95.085938 107.550781 L 62.664062 105.289062 L 50.496094 107.304688 "/>
<path style=" stroke:none;fill-rule:nonzero;fill:rgb(100%,100%,100%);fill-opacity:1;" d="M 63.140625 105.289062 L 62.664062 96.421875 L 65.644531 96.421875 L 66.101562 105.289062 L 63.140625 105.289062 "/>
<path style=" stroke:none;fill-rule:nonzero;fill:rgb(98.039246%,73.728943%,52.938843%);fill-opacity:1;" d="M 48.597656 101.585938 L 54.554688 95.324219 C 54.554688 95.324219 56.988281 94.28125 60.214844 96.5 C 60.214844 96.5 62.132812 97.546875 62.875 97.53125 C 62.875 97.53125 63.769531 104.640625 62.503906 108.0625 C 62.503906 108.0625 48.765625 106.875 48.597656 101.585938 "/>
<path style=" stroke:none;fill-rule:nonzero;fill:rgb(100%,100%,100%);fill-opacity:1;" d="M 63.066406 60.496094 C 63.066406 60.496094 64.550781 77.363281 74.894531 90.792969 C 74.894531 90.792969 79.953125 80.238281 85.25 61.023438 L 63.066406 60.496094 "/>
<path style=" stroke:none;fill-rule:nonzero;fill:rgb(76.469421%,89.019775%,89.408875%);fill-opacity:1;" d="M 81.773438 72.640625 L 77.136719 67.375 L 76.039062 68.710938 L 78.90625 83.414062 L 75.382812 89.125 L 73.839844 66.085938 L 76.632812 63.511719 L 76.882812 63.511719 L 82.175781 71.042969 L 81.773438 72.640625 "/>
<path style=" stroke:none;fill-rule:nonzero;fill:rgb(87.838745%,61.959839%,43.139648%);fill-opacity:1;" d="M 64.179688 47.464844 C 64.179688 47.464844 66.675781 56.230469 64.367188 61.203125 C 64.367188 61.203125 72.648438 67.875 83.285156 61.910156 C 83.285156 61.910156 81.183594 52.832031 83.050781 47.464844 L 64.179688 47.464844 "/>
<path style=" stroke:none;fill-rule:nonzero;fill:rgb(83.529663%,64.709473%,52.159119%);fill-opacity:1;" d="M 82.941406 60.164062 C 82.792969 59.296875 82.617188 58.160156 82.488281 56.894531 C 82.617188 58.164062 82.792969 59.296875 82.941406 60.160156 L 82.941406 60.164062 M 65.132812 52.402344 C 65.132812 52.402344 65.128906 52.402344 65.128906 52.398438 C 64.988281 51.246094 64.804688 50.210938 64.632812 49.382812 L 64.632812 49.375 C 64.804688 50.203125 64.992188 51.25 65.132812 52.402344 "/>
<path style=" stroke:none;fill-rule:nonzero;fill:rgb(80.389404%,54.899597%,38.819885%);fill-opacity:1;" d="M 74.375 64.386719 C 75.785156 62.417969 76.632812 58.164062 76.632812 58.164062 C 76.011719 58.652344 75.308594 58.769531 74.78125 58.769531 C 74.292969 58.769531 73.949219 58.671875 73.949219 58.671875 C 72.410156 58.464844 67.105469 54.074219 65.132812 52.402344 C 64.992188 51.25 64.804688 50.203125 64.632812 49.375 L 64.832031 47.464844 L 83.050781 47.464844 C 82.09375 50.210938 82.175781 53.921875 82.488281 56.894531 C 82.617188 58.160156 82.792969 59.296875 82.941406 60.164062 L 77.59375 64.058594 C 76.46875 64.28125 75.390625 64.378906 74.375 64.386719 "/>
<path style=" stroke:none;fill-rule:nonzero;fill:rgb(98.039246%,73.728943%,52.938843%);fill-opacity:1;" d="M 60.535156 37.875 C 60.535156 37.875 59.261719 34.90625 57.742188 37.535156 C 57.742188 37.535156 56.316406 40.460938 59.132812 42.757812 C 59.132812 42.757812 60.3125 43.976562 60.535156 44.347656 C 60.535156 44.347656 61.878906 45.699219 62.503906 44.347656 L 60.535156 37.875 "/>
<path style=" stroke:none;fill-rule:nonzero;fill:rgb(98.039246%,73.728943%,52.938843%);fill-opacity:1;" d="M 87.800781 37.875 C 87.800781 37.875 89.070312 34.90625 90.59375 37.535156 C 90.59375 37.535156 92.007812 40.460938 89.199219 42.757812 C 89.199219 42.757812 88.015625 43.976562 87.800781 44.347656 C 87.800781 44.347656 86.453125 45.699219 85.820312 44.347656 L 87.800781 37.875 "/>
<path style=" stroke:none;fill-rule:nonzero;fill:rgb(92.939758%,65.098572%,44.709778%);fill-opacity:1;" d="M 87.800781 37.875 C 87.800781 37.875 89.070312 34.90625 90.59375 37.535156 C 90.59375 37.535156 92.007812 40.460938 89.199219 42.757812 C 89.199219 42.757812 88.015625 43.976562 87.800781 44.347656 C 87.800781 44.347656 86.453125 45.699219 85.820312 44.347656 L 87.800781 37.875 "/>
<path style=" stroke:none;fill-rule:nonzero;fill:rgb(77.249146%,52.159119%,37.249756%);fill-opacity:1;" d="M 90.554688 38.898438 C 90.554688 38.898438 89.265625 36.890625 88.339844 38.117188 C 88.339844 38.117188 87.605469 40.355469 87.703125 40.699219 C 87.703125 40.699219 87.925781 41.875 87.222656 42.226562 C 87.222656 42.226562 86.347656 43.355469 86.644531 44.113281 C 86.644531 44.113281 87.566406 44.113281 87.875 43.507812 C 87.875 43.507812 87.125 43.347656 87.574219 42.613281 C 87.574219 42.613281 88.859375 41.617188 88.566406 40.339844 C 88.566406 40.339844 88.917969 38.867188 89.464844 40.054688 C 89.464844 40.054688 89.789062 39.597656 89.304688 38.675781 C 89.304688 38.675781 90.207031 38.550781 90.554688 38.898438 "/>
<path style=" stroke:none;fill-rule:nonzero;fill:rgb(98.039246%,73.728943%,52.938843%);fill-opacity:1;" d="M 88.03125 38.121094 C 88.03125 26.996094 81.898438 19.355469 74.300781 19.242188 C 74.269531 19.242188 74.246094 19.242188 74.222656 19.242188 C 74.191406 19.242188 74.167969 19.242188 74.136719 19.242188 C 66.539062 19.355469 60.40625 26.996094 60.40625 38.121094 C 60.40625 38.121094 63.535156 56.746094 74.136719 56.996094 C 74.167969 56.996094 74.191406 56.996094 74.222656 56.996094 C 74.246094 56.996094 74.269531 56.996094 74.300781 56.996094 C 84.902344 56.746094 88.03125 38.121094 88.03125 38.121094 "/>
<path style=" stroke:none;fill-rule:nonzero;fill:rgb(92.939758%,65.098572%,44.709778%);fill-opacity:1;" d="M 75.945312 56.792969 C 85.226562 54.785156 88.03125 38.121094 88.03125 38.121094 C 88.03125 28.472656 83.414062 21.453125 77.234375 19.683594 L 72.796875 19.683594 C 72.796875 19.683594 65 22.332031 64.832031 28.601562 C 64.832031 28.601562 67.996094 27.277344 69.535156 28.042969 C 69.535156 28.042969 76.453125 30.6875 79.359375 29.070312 C 79.359375 29.070312 80.296875 34.273438 82.089844 35.382812 C 82.089844 35.382812 83.972656 38.082031 84.058594 40.699219 C 84.058594 40.699219 83.601562 52.308594 75.945312 56.792969 "/>
<path style=" stroke:none;fill-rule:nonzero;fill:rgb(100%,100%,100%);fill-opacity:1;" d="M 63.066406 60.496094 C 63.066406 60.496094 64.28125 55.792969 65.347656 55.792969 L 73.257812 63.851562 L 75.308594 63.851562 L 84.003906 55.632812 C 84.003906 55.632812 85.570312 55.929688 84.671875 59.277344 L 81.921875 70.871094 L 75.558594 64.339844 L 73.046875 64.261719 L 71.15625 67.589844 L 65.957031 71.394531 L 63.066406 60.496094 "/>
<path style=" stroke:none;fill-rule:nonzero;fill:rgb(69.799805%,11.369324%,13.729858%);fill-opacity:1;" d="M 73.257812 63.851562 L 71.9375 66.414062 L 73.257812 68.710938 L 74.4375 68.710938 L 74.4375 63.851562 L 73.257812 63.851562 "/>
<path style=" stroke:none;fill-rule:nonzero;fill:rgb(69.799805%,11.369324%,13.729858%);fill-opacity:1;" d="M 75.308594 63.851562 L 76.632812 66.414062 L 75.308594 68.710938 L 74.136719 68.710938 L 74.136719 63.851562 L 75.308594 63.851562 "/>
<path style=" stroke:none;fill-rule:nonzero;fill:rgb(69.799805%,11.369324%,13.729858%);fill-opacity:1;" d="M 73.234375 68.710938 L 71.523438 87.15625 L 74.574219 90.792969 L 74.414062 68.710938 L 73.234375 68.710938 "/>
<path style=" stroke:none;fill-rule:nonzero;fill:rgb(69.799805%,11.369324%,13.729858%);fill-opacity:1;" d="M 75.308594 68.710938 L 77.941406 87.15625 L 74.386719 91.277344 L 74.136719 68.710938 L 75.308594 68.710938 "/>
<path style=" stroke:none;fill-rule:nonzero;fill:rgb(17.649841%,18.03894%,18.818665%);fill-opacity:1;" d="M 88.03125 61.542969 L 89.238281 73.285156 L 81.175781 74.445312 L 80.8125 73.71875 L 84.945312 57.734375 L 85.570312 57.734375 L 88.03125 61.542969 "/>
<path style=" stroke:none;fill-rule:nonzero;fill:rgb(17.649841%,18.03894%,18.818665%);fill-opacity:1;" d="M 61.328125 60.976562 L 59.421875 73.363281 L 67.296875 74.445312 L 67.519531 73.675781 L 63.800781 58.164062 L 61.328125 60.976562 "/>
<path style=" stroke:none;fill-rule:nonzero;fill:rgb(17.649841%,18.03894%,18.818665%);fill-opacity:1;" d="M 65.222656 69.589844 L 62.875 77.25 C 62.875 77.25 71.113281 91.660156 76.195312 93.523438 C 76.195312 93.523438 66.722656 73.664062 65.222656 69.589844 "/>
<path style=" stroke:none;fill-rule:nonzero;fill:rgb(17.649841%,18.03894%,18.818665%);fill-opacity:1;" d="M 74.320312 91.980469 C 73.980469 91.546875 74.34375 91.996094 74.40625 92.058594 C 74.484375 92.15625 74.566406 92.234375 74.644531 92.324219 C 74.808594 92.496094 74.980469 92.660156 75.160156 92.824219 C 75.214844 92.878906 75.28125 92.925781 75.339844 92.984375 C 80.273438 89.625 85.570312 77.089844 85.570312 77.089844 L 82.945312 69.261719 C 81.9375 72.039062 77.246094 86.957031 73.949219 91.570312 C 74.078125 91.707031 74.210938 91.839844 74.320312 91.980469 "/>
<path style=" stroke:none;fill-rule:nonzero;fill:rgb(12.159729%,12.548828%,12.939453%);fill-opacity:1;" d="M 59.945312 36.949219 L 61.15625 41.375 L 62.503906 40.414062 C 62.503906 40.414062 62.230469 37.34375 62.503906 34.785156 C 62.503906 34.785156 64.148438 32.515625 65.769531 27.589844 C 65.769531 27.589844 68.675781 25.996094 70.640625 26.679688 C 70.640625 26.679688 76.023438 28.726562 79.015625 27.019531 C 79.015625 27.019531 81.066406 26.628906 81.496094 27.589844 C 81.496094 27.589844 82.519531 33.164062 84.144531 34.871094 C 84.144531 34.871094 85.292969 36.320312 85.570312 37.683594 L 85.570312 40.328125 L 87.109375 41.375 C 87.109375 41.375 88.097656 38.707031 88.03125 37.433594 C 88.03125 37.433594 89.964844 29.304688 86.492188 23.25 C 86.492188 23.25 84.570312 21.390625 83.800781 19.769531 C 83.03125 18.148438 81.835938 17.039062 80.382812 17.550781 C 80.382812 17.550781 76.261719 14.992188 74.21875 16.101562 C 74.21875 16.101562 71.074219 16.953125 69.535156 16.613281 C 67.992188 16.269531 66.882812 15.820312 65.34375 17.210938 C 65.34375 17.210938 60.898438 19.242188 60.898438 22.414062 C 60.898438 22.414062 60.164062 25.144531 59.421875 25.570312 C 59.421875 25.570312 56.167969 28.8125 57.382812 31.285156 C 57.382812 31.285156 57.4375 34.34375 59.945312 36.949219 "/>
<path style=" stroke:none;fill-rule:nonzero;fill:rgb(29.798889%,30.589294%,31.759644%);fill-opacity:1;" d="M 41.847656 69.464844 L 42.273438 73.34375 C 42.273438 73.34375 39.707031 89.640625 41.714844 94.09375 L 40.441406 96.121094 C 40.441406 96.121094 41.464844 99.476562 40.441406 100.246094 C 40.441406 100.246094 39.929688 104.035156 40.441406 105.339844 C 40.441406 105.339844 42.222656 110.945312 43.148438 113.507812 C 43.148438 113.507812 45.621094 114.917969 48.007812 115.574219 C 48.007812 115.574219 60.40625 118.648438 79.761719 108.753906 C 79.761719 108.753906 76.613281 104.4375 74.574219 100.855469 C 74.574219 100.855469 55.28125 100.628906 52.207031 102.332031 L 51.519531 97.339844 L 53.039062 95.078125 C 53.039062 95.078125 52.527344 88.960938 53.039062 86.058594 C 53.039062 86.058594 53.894531 75.988281 52.015625 69.589844 C 52.015625 69.589844 48.667969 66.21875 45.933594 66.085938 L 41.847656 69.464844 "/>
<path style=" stroke:none;fill-rule:nonzero;fill:rgb(29.798889%,30.589294%,31.759644%);fill-opacity:1;" d="M 65.941406 102.210938 C 64.433594 101.875 65.824219 94.503906 65.824219 94.503906 C 65.824219 94.503906 82.238281 95.980469 88.585938 98.359375 L 90.894531 98.359375 L 91.535156 99.625 L 93.839844 99.113281 L 95.105469 100.21875 C 95.105469 100.21875 93.9375 95.144531 95.105469 88.105469 L 99.992188 66.085938 L 101.402344 66.085938 L 106.347656 68.710938 L 105.890625 72.367188 C 105.890625 72.367188 108.582031 86.058594 108.199219 91.945312 L 109.351562 94.246094 C 109.351562 94.246094 109.5 94.183594 108.605469 95.078125 C 108.605469 95.078125 109.992188 96.933594 108.453125 98.855469 C 108.453125 98.855469 108.429688 109.605469 107.824219 113.359375 L 105.503906 115.574219 C 105.503906 115.574219 96.992188 114.871094 94.839844 114.882812 C 94.839844 114.882812 91.660156 114.894531 90.125 113.53125 L 87.628906 113.53125 L 85.570312 111.3125 L 84.144531 112.164062 C 84.144531 112.164062 68.71875 102.820312 65.941406 102.210938 "/>
<path style=" stroke:none;fill-rule:nonzero;fill:rgb(17.649841%,18.03894%,18.818665%);fill-opacity:1;" d="M 101.402344 66.085938 L 100.023438 68.015625 L 98.722656 79.996094 L 101.402344 79.996094 L 103.839844 83.5 L 100.515625 81.554688 L 97.847656 82.324219 L 100.023438 83.5 L 103.839844 89.125 L 99.511719 85.289062 L 97.847656 85.035156 L 98.722656 92.328125 L 98.632812 97.574219 L 95.472656 98.511719 L 97.171875 92.328125 L 96.246094 84.394531 L 97.847656 75.644531 L 98.648438 67.5 C 98.648438 67.5 99.609375 66.210938 101.402344 66.085938 "/>
<path style=" stroke:none;fill-rule:nonzero;fill:rgb(98.039246%,73.728943%,52.938843%);fill-opacity:1;" d="M 99.511719 100.328125 C 99.511719 100.328125 100.394531 101.191406 100.515625 100.054688 C 100.515625 100.054688 100.3125 96.742188 97.847656 95.71875 C 97.847656 95.71875 96.75 96.136719 96.960938 97.066406 L 99.511719 100.328125 "/>
<path style=" stroke:none;fill-rule:nonzero;fill:rgb(98.039246%,73.728943%,52.938843%);fill-opacity:1;" d="M 95.667969 97.929688 L 95.667969 97.257812 C 95.667969 97.257812 96.53125 96.457031 97.207031 96.261719 C 97.207031 96.261719 98.839844 97.449219 99.511719 98.824219 C 99.511719 98.824219 100.023438 100.488281 100.023438 101.222656 C 100.023438 101.222656 99.511719 101.574219 98.648438 100.773438 L 95.667969 97.929688 "/>
<path style=" stroke:none;fill-rule:nonzero;fill:rgb(98.039246%,73.728943%,52.938843%);fill-opacity:1;" d="M 98.039062 102.023438 C 98.039062 102.023438 98.839844 102.886719 99.511719 102.375 L 98.777344 99.785156 C 98.777344 99.785156 97.652344 98.25 96.628906 97.574219 C 96.628906 97.574219 94.402344 97.496094 94.40625 98.664062 L 98.039062 102.023438 "/>
<path style=" stroke:none;fill-rule:nonzero;fill:rgb(98.039246%,73.728943%,52.938843%);fill-opacity:1;" d="M 93.839844 99.113281 L 95.777344 101.570312 C 95.777344 101.570312 96.824219 103.621094 98.648438 103.398438 L 97.984375 100.855469 C 97.984375 100.855469 95.847656 96.980469 93.839844 99.113281 "/>
<path style=" stroke:none;fill-rule:nonzero;fill:rgb(77.249146%,52.159119%,37.249756%);fill-opacity:1;" d="M 57.730469 38.898438 C 57.730469 38.898438 59.019531 36.890625 59.945312 38.117188 C 59.945312 38.117188 60.675781 40.355469 60.582031 40.699219 C 60.582031 40.699219 60.355469 41.875 61.0625 42.226562 C 61.0625 42.226562 61.933594 43.355469 61.640625 44.113281 C 61.640625 44.113281 60.714844 44.113281 60.40625 43.507812 C 60.40625 43.507812 61.15625 43.347656 60.707031 42.613281 C 60.707031 42.613281 59.421875 41.617188 59.714844 40.339844 C 59.714844 40.339844 59.363281 38.867188 58.816406 40.054688 C 58.816406 40.054688 58.496094 39.597656 58.976562 38.675781 C 58.976562 38.675781 58.078125 38.550781 57.730469 38.898438 "/>
<path style=" stroke:none;fill-rule:nonzero;fill:rgb(17.649841%,18.03894%,18.818665%);fill-opacity:1;" d="M 46.394531 66.28125 C 46.394531 66.28125 51.417969 71.128906 51.5 72.410156 L 51.925781 79.75 L 49.164062 78.039062 L 45.007812 77.441406 C 45.007812 77.441406 50.644531 80.257812 51.589844 83.15625 L 47.316406 82.046875 L 43.554688 82.132812 L 48.597656 83.5 L 52.355469 86.824219 L 51.84375 93.523438 L 50.648438 97.066406 L 51.660156 98.367188 L 52.71875 97.253906 L 53.636719 92.984375 L 52.835938 91.277344 L 53.09375 85.285156 C 53.09375 85.285156 53.382812 74.296875 52.097656 69.898438 C 52.097656 69.898438 46.855469 66.476562 46.394531 66.28125 "/>
<path style=" stroke:none;fill-rule:nonzero;fill:rgb(24.308777%,25.099182%,25.878906%);fill-opacity:1;" d="M 108.605469 95.078125 C 109.5 94.183594 109.351562 94.246094 109.351562 94.246094 L 108.199219 91.945312 C 108.582031 86.058594 105.890625 72.367188 105.890625 72.367188 L 106.347656 68.710938 L 103.355469 67.121094 L 102.601562 71.394531 L 105.847656 81.125 L 105.847656 91.058594 L 103.839844 90.792969 L 105.847656 94.417969 L 103.839844 93.523438 L 105.847656 97.574219 L 104.222656 97.574219 L 104.222656 108.921875 L 101.746094 111.796875 L 95.777344 110.628906 L 92.175781 111.796875 L 89.238281 110.085938 L 87.300781 110.085938 L 84.949219 108.0625 C 84.949219 108.0625 69.796875 100.292969 65.285156 98.667969 C 65.167969 100.402344 65.246094 102.054688 65.941406 102.210938 C 68.71875 102.820312 84.144531 112.164062 84.144531 112.164062 L 85.570312 111.3125 L 87.628906 113.53125 L 90.125 113.53125 C 91.660156 114.894531 94.839844 114.882812 94.839844 114.882812 C 96.992188 114.871094 105.503906 115.574219 105.503906 115.574219 L 107.824219 113.359375 C 108.429688 109.605469 108.453125 98.855469 108.453125 98.855469 C 109.992188 96.933594 108.605469 95.078125 108.605469 95.078125 "/>
</g>
</svg>
