<?xml version="1.0" encoding="UTF-8"?>
<svg xmlns="http://www.w3.org/2000/svg" xmlns:xlink="http://www.w3.org/1999/xlink" width="375pt" height="219pt" viewBox="0 0 375 219" version="1.2">
<g id="surface1">
<path style=" stroke:none;fill-rule:nonzero;fill:rgb(45.098877%,45.098877%,45.098877%);fill-opacity:1;" d="M 148.15625 143.011719 L 148.15625 131.914062 L 132.726562 138.074219 C 131.886719 138.417969 130.984375 138.597656 130.058594 138.597656 C 128.285156 138.597656 126.585938 137.9375 125.277344 136.742188 L 122.242188 133.976562 L 125.042969 141.226562 L 148.15625 143.011719 M 128.917969 198.808594 C 129.300781 197.679688 129.917969 196.386719 130.9375 195.152344 C 131.023438 186.277344 130.792969 177.53125 130.382812 173.289062 C 125.429688 171.914062 113.789062 170.996094 108.535156 170.582031 C 106.875 170.453125 105.199219 170.320312 103.625 170.183594 C 102.375 183.984375 100.851562 191.902344 96.757812 196.125 C 95.609375 197.304688 94.398438 198.175781 91.796875 198.808594 L 128.917969 198.808594 M 227.59375 198.808594 C 227.84375 196.332031 229.941406 194.394531 232.480469 194.394531 L 245.273438 194.394531 L 245.273438 180.726562 C 245.273438 179.347656 246.390625 178.230469 247.773438 178.230469 L 253.355469 178.230469 L 253.355469 168.125 L 159.597656 168.125 C 154.375 168.125 149.9375 164.675781 148.585938 159.753906 C 147.535156 159.128906 146.640625 158.285156 145.945312 157.289062 L 119.464844 155.058594 C 118.523438 154.984375 117.621094 154.722656 116.804688 154.304688 L 116.539062 155.359375 C 130.5 156.621094 138.515625 158.171875 142.726562 162.257812 C 145.230469 164.6875 146.367188 167.414062 146.699219 183.265625 C 146.753906 185.960938 146.773438 188.582031 146.777344 190.734375 C 156.632812 191.3125 161.363281 195.410156 163.113281 198.808594 L 227.59375 198.808594 M 306.21875 198.808594 C 304.964844 196.976562 304.230469 194.753906 304.230469 192.363281 L 304.230469 179.035156 C 304.230469 173.925781 307.589844 169.59375 312.210938 168.125 L 263.179688 168.125 L 263.179688 178.230469 L 268.246094 178.230469 C 269.628906 178.230469 270.746094 179.347656 270.746094 180.726562 L 270.746094 194.394531 L 284.058594 194.394531 C 286.597656 194.394531 288.695312 196.332031 288.945312 198.808594 L 306.21875 198.808594 M 11.8125 216.40625 C 6.808594 216.40625 2.742188 212.460938 2.742188 207.609375 C 2.742188 202.757812 6.808594 198.808594 11.8125 198.808594 L 37.207031 198.808594 C 36.683594 198.261719 36.3125 197.691406 36.128906 197.109375 C 35.722656 195.816406 36.417969 194.433594 37.695312 193.992188 L 50.941406 189.429688 C 52.339844 185.746094 55.683594 183.277344 59.492188 183.277344 C 60.933594 183.277344 62.355469 183.636719 63.636719 184.332031 C 64.917969 184.34375 66.21875 184.351562 67.523438 184.351562 L 67.535156 184.351562 C 75.316406 184.351562 82.125 184.132812 85.71875 183.78125 C 86.953125 179.351562 87.808594 169.636719 88.1875 164.992188 C 84.289062 160.9375 82.714844 155.179688 84.066406 149.667969 L 88.496094 129.683594 C 88.707031 127.582031 89.085938 125.515625 89.457031 123.515625 C 89.695312 122.203125 89.925781 120.96875 90.082031 119.828125 L 90.109375 119.667969 C 90.527344 117.644531 91.296875 115.667969 92.40625 113.785156 C 93.210938 112.136719 94.328125 110.714844 95.722656 109.554688 C 98.53125 106.820312 101.988281 105.042969 105.488281 104.488281 C 103.9375 103.121094 102.515625 101.425781 101.261719 99.449219 C 98.957031 95.808594 97.789062 90.167969 97.644531 86.199219 C 97.464844 81.25 99.027344 76.914062 102.167969 73.65625 C 105.878906 69.804688 111.710938 67.601562 118.171875 67.601562 C 120.917969 67.601562 123.617188 67.996094 126.1875 68.765625 C 130.054688 69.925781 132.953125 71.785156 134.796875 74.289062 C 135.808594 75.65625 137.898438 78.949219 136.472656 81.199219 C 138.707031 86.339844 139.921875 92.664062 139.679688 98.105469 C 139.621094 99.417969 138.554688 100.460938 137.246094 100.492188 C 134.527344 100.558594 134.191406 101.507812 133.292969 104.050781 C 132.207031 107.101562 130.570312 111.710938 122.632812 111.710938 C 122.351562 111.710938 122.054688 111.703125 121.75 111.695312 C 122.441406 112.886719 122.949219 114.226562 123.285156 115.707031 L 131.53125 123.214844 L 148.15625 116.441406 L 148.15625 115.515625 C 148.15625 110.246094 151.699219 105.804688 156.578125 104.484375 C 155.585938 86.886719 158.609375 74.480469 165.582031 67.578125 C 166.429688 66.742188 167.445312 65.921875 168.625 65.128906 L 168.230469 65.128906 C 162.441406 65.09375 157.753906 60.355469 157.789062 54.5625 C 157.816406 48.804688 162.523438 44.113281 168.285156 44.113281 L 179.457031 44.179688 C 180.175781 44.183594 180.890625 44.261719 181.589844 44.410156 L 185.890625 27.710938 C 189.253906 10.871094 225.929688 4.894531 256.359375 4.894531 C 290.421875 4.894531 326.117188 12.195312 329.1875 28.503906 L 333.304688 45.246094 C 333.988281 45.105469 334.683594 45.039062 335.378906 45.039062 L 346.550781 45.097656 C 352.339844 45.132812 357.027344 49.875 356.996094 55.664062 C 356.964844 61.421875 352.253906 66.109375 346.492188 66.109375 L 346.042969 66.109375 C 347.210938 66.917969 348.21875 67.746094 349.054688 68.589844 C 366.203125 85.9375 354.5 132.535156 347.710938 154.394531 C 350.164062 155.558594 351.835938 158.039062 351.835938 160.902344 C 351.835938 163.917969 349.976562 166.511719 347.339844 167.589844 L 356.8125 167.589844 C 363.121094 167.589844 368.25 172.722656 368.25 179.035156 L 368.25 192.363281 C 368.25 194.9375 367.398438 197.320312 365.957031 199.230469 C 369.609375 200.367188 372.257812 203.695312 372.257812 207.609375 C 372.257812 212.460938 368.1875 216.40625 363.1875 216.40625 L 11.8125 216.40625 "/>
<path style=" stroke:none;fill-rule:nonzero;fill:rgb(45.098877%,45.098877%,45.098877%);fill-opacity:1;" d="M 99.855469 196.3125 C 103.242188 191.691406 104.738281 184.371094 105.878906 172.875 C 106.679688 172.941406 107.484375 173.003906 108.277344 173.066406 L 108.339844 173.070312 C 112.210938 173.375 122.617188 174.199219 128.046875 175.296875 C 128.34375 179.660156 128.503906 186.867188 128.449219 194.296875 C 127.992188 194.933594 127.59375 195.605469 127.246094 196.3125 Z M 265.679688 170.625 L 304.558594 170.625 C 302.785156 172.960938 301.734375 175.878906 301.734375 179.035156 L 301.734375 192.363281 C 301.734375 193.734375 301.929688 195.058594 302.300781 196.3125 L 290.835938 196.3125 C 289.683594 193.710938 287.078125 191.894531 284.058594 191.894531 L 273.242188 191.894531 L 273.242188 180.726562 C 273.242188 177.96875 271.003906 175.730469 268.246094 175.730469 L 265.679688 175.730469 Z M 149.265625 188.453125 C 149.253906 186.820312 149.230469 185.035156 149.195312 183.214844 C 148.863281 167.359375 147.71875 163.625 144.460938 160.464844 C 144.148438 160.160156 143.824219 159.867188 143.480469 159.589844 L 144.652344 159.6875 C 145.195312 160.304688 145.800781 160.859375 146.464844 161.34375 C 148.390625 166.847656 153.5625 170.625 159.597656 170.625 L 250.859375 170.625 L 250.859375 175.730469 L 247.773438 175.730469 C 245.011719 175.730469 242.777344 177.96875 242.777344 180.726562 L 242.777344 191.894531 L 232.480469 191.894531 C 229.460938 191.894531 226.855469 193.710938 225.707031 196.3125 L 164.496094 196.3125 C 162.160156 192.941406 157.484375 189.449219 149.265625 188.453125 Z M 135.773438 139.550781 L 145.660156 135.605469 L 145.660156 140.3125 Z M 256.359375 2.394531 C 245.007812 2.390625 188.261719 3.585938 183.457031 27.148438 L 179.710938 41.683594 L 179.46875 41.683594 L 168.363281 41.617188 L 168.285156 41.617188 C 161.152344 41.617188 155.328125 47.421875 155.292969 54.554688 C 155.261719 59.90625 158.484375 64.53125 163.105469 66.546875 C 156.363281 73.816406 153.304688 85.976562 153.996094 102.75 C 149.285156 104.804688 145.96875 109.371094 145.683594 114.75 L 132.046875 120.308594 L 125.523438 114.367188 C 125.488281 114.25 125.457031 114.132812 125.421875 114.015625 C 132.789062 112.933594 134.679688 107.597656 135.644531 104.886719 C 135.855469 104.292969 136.167969 103.414062 136.375 103.109375 C 136.484375 103.074219 136.761719 103.003906 137.304688 102.992188 C 139.929688 102.929688 142.058594 100.84375 142.175781 98.21875 C 142.417969 92.78125 141.296875 86.519531 139.195312 81.25 C 140.226562 78.007812 137.988281 74.398438 136.800781 72.796875 C 134.632812 69.855469 131.304688 67.695312 126.910156 66.375 C 124.105469 65.53125 121.160156 65.101562 118.171875 65.101562 C 111.039062 65.101562 104.546875 67.589844 100.371094 71.921875 C 96.75 75.679688 94.941406 80.644531 95.144531 86.289062 C 95.289062 90.28125 96.425781 96.472656 99.148438 100.785156 C 99.695312 101.640625 100.269531 102.453125 100.871094 103.214844 C 98.410156 104.214844 96.078125 105.738281 94.054688 107.691406 C 92.4375 109.050781 91.144531 110.703125 90.203125 112.601562 C 88.984375 114.695312 88.132812 116.898438 87.664062 119.160156 C 87.640625 119.269531 87.625 119.375 87.609375 119.480469 C 87.457031 120.570312 87.234375 121.777344 86.996094 123.0625 C 86.644531 124.972656 86.246094 127.128906 86.023438 129.285156 L 81.625 149.128906 C 80.1875 155.082031 81.703125 161.277344 85.605469 165.859375 C 84.90625 174.089844 84.257812 178.789062 83.714844 181.4375 C 79.957031 181.691406 74.023438 181.851562 67.535156 181.851562 C 66.429688 181.851562 65.328125 181.847656 64.238281 181.835938 C 62.75 181.140625 61.132812 180.777344 59.492188 180.777344 C 55.03125 180.777344 51.074219 183.398438 49.09375 187.425781 L 36.886719 191.628906 C 34.832031 192.335938 33.53125 194.25 33.511719 196.3125 L 11.8125 196.3125 C 5.433594 196.3125 0.246094 201.378906 0.246094 207.609375 C 0.246094 213.839844 5.433594 218.90625 11.8125 218.90625 L 363.1875 218.90625 C 369.5625 218.90625 374.753906 213.839844 374.753906 207.609375 C 374.753906 203.652344 372.660156 200.160156 369.496094 198.140625 C 370.300781 196.382812 370.75 194.425781 370.75 192.363281 L 370.75 179.035156 C 370.75 171.347656 364.496094 165.089844 356.8125 165.089844 L 353.386719 165.089844 C 353.996094 163.820312 354.335938 162.402344 354.335938 160.902344 C 354.335938 157.820312 352.898438 155.070312 350.65625 153.292969 C 353.480469 143.960938 357.363281 129.386719 359.269531 114.550781 C 362.148438 92.199219 359.546875 76.410156 351.542969 67.585938 C 356.183594 65.617188 359.464844 61.015625 359.492188 55.675781 C 359.53125 48.507812 353.734375 42.644531 346.566406 42.601562 L 335.453125 42.542969 L 335.214844 42.542969 L 331.628906 27.96875 C 329.945312 19.230469 320.832031 12.515625 304.546875 8.007812 C 291.46875 4.386719 274.355469 2.394531 256.359375 2.394531 Z M 144.277344 193.167969 L 144.375 193.167969 C 156.328125 193.167969 160.78125 198.332031 161.386719 201.308594 L 231.136719 201.308594 C 230.492188 200.875 230.070312 200.136719 230.070312 199.304688 C 230.070312 197.96875 231.148438 196.894531 232.480469 196.894531 L 255.855469 196.894531 L 255.855469 196.855469 L 247.773438 196.855469 L 247.773438 180.726562 L 255.855469 180.726562 L 255.855469 165.625 L 159.597656 165.625 C 155.125 165.625 151.433594 162.339844 150.773438 158.050781 C 149.097656 157.394531 147.839844 156.058594 147.261719 154.445312 L 146.976562 154.847656 L 146.894531 154.855469 L 146.882812 154.851562 L 146.734375 154.84375 L 119.675781 152.570312 C 117.902344 152.429688 116.375 151.292969 115.734375 149.636719 L 115.527344 149.101562 L 113.578125 156.917969 C 113.523438 157.148438 113.445312 157.367188 113.375 157.59375 C 127.355469 158.757812 136.875 160.058594 140.984375 164.046875 C 142.773438 165.785156 143.875 167.949219 144.199219 183.320312 C 144.273438 186.976562 144.285156 190.523438 144.277344 193.167969 M 130.058594 136.101562 C 128.933594 136.101562 127.824219 135.6875 126.960938 134.898438 L 120.527344 129.039062 L 119.402344 133.554688 L 123.28125 143.597656 L 150.65625 145.714844 L 150.65625 128.230469 L 131.800781 135.757812 C 131.238281 135.988281 130.644531 136.101562 130.058594 136.101562 M 256.359375 7.394531 C 290.0625 7.394531 324.136719 14.664062 326.746094 29.027344 L 331.542969 48.523438 C 332.683594 47.894531 333.988281 47.539062 335.378906 47.539062 L 335.425781 47.539062 L 346.535156 47.597656 C 350.957031 47.625 354.523438 51.230469 354.5 55.648438 C 354.476562 60.058594 350.894531 63.609375 346.492188 63.609375 L 346.449219 63.609375 L 335.367188 63.550781 C 340.609375 65.542969 344.769531 67.808594 347.277344 70.34375 C 364.640625 87.910156 349.605469 140.347656 344.527344 156.175781 L 344.621094 156.175781 C 347.222656 156.175781 349.339844 158.292969 349.339844 160.902344 C 349.339844 163.507812 347.222656 165.625 344.621094 165.625 L 260.683594 165.625 L 260.683594 180.726562 L 268.246094 180.726562 L 268.246094 196.855469 L 260.683594 196.855469 L 260.683594 196.894531 L 284.058594 196.894531 C 285.390625 196.894531 286.472656 197.96875 286.472656 199.304688 C 286.472656 200.136719 286.050781 200.875 285.40625 201.308594 L 315.664062 201.308594 C 310.726562 201.308594 306.726562 197.304688 306.726562 192.363281 L 306.726562 179.035156 C 306.726562 174.09375 310.726562 170.089844 315.664062 170.089844 L 356.8125 170.089844 C 361.75 170.089844 365.753906 174.09375 365.753906 179.035156 L 365.753906 192.363281 C 365.753906 197.304688 361.75 201.308594 356.8125 201.308594 L 363.1875 201.308594 C 366.816406 201.308594 369.757812 204.128906 369.757812 207.609375 C 369.757812 211.089844 366.816406 213.910156 363.1875 213.910156 L 11.8125 213.910156 C 8.183594 213.910156 5.242188 211.089844 5.242188 207.609375 C 5.242188 204.128906 8.183594 201.308594 11.8125 201.308594 L 130.882812 201.308594 C 131.097656 199.746094 131.796875 197.746094 133.429688 196.125 C 133.542969 186.488281 133.292969 175.386719 132.675781 171.4375 C 128.496094 169.644531 115.285156 168.609375 108.667969 168.085938 C 105.996094 167.875 103.53125 167.679688 101.371094 167.464844 L 101.355469 167.46875 C 100.207031 181.066406 98.878906 190.34375 94.960938 194.382812 C 93.226562 196.171875 91.0625 197.28125 75.699219 197.601562 C 72.714844 197.660156 69.796875 197.679688 67.390625 197.679688 C 66.441406 197.679688 65.582031 197.675781 64.820312 197.671875 C 64 198.828125 62.890625 199.71875 61.59375 200.183594 L 61.582031 200.191406 L 61.546875 200.199219 C 61.261719 200.300781 60.964844 200.375 60.664062 200.433594 C 58.1875 201.050781 55.75 201.308594 53.457031 201.308594 C 45.425781 201.308594 39.082031 198.171875 38.507812 196.359375 L 52.960938 191.378906 C 53.691406 188.164062 56.332031 185.777344 59.492188 185.777344 C 60.757812 185.777344 61.933594 186.160156 62.945312 186.824219 C 64.449219 186.84375 65.988281 186.851562 67.535156 186.851562 C 75.855469 186.851562 84.25 186.589844 87.574219 186.074219 C 89.207031 182.265625 90.210938 171.003906 90.769531 164.011719 C 87.039062 160.6875 85.21875 155.460938 86.492188 150.261719 L 90.964844 130.078125 C 91.292969 126.664062 92.136719 123.160156 92.554688 120.175781 C 92.941406 118.3125 93.664062 116.5625 94.609375 114.96875 C 95.285156 113.546875 96.234375 112.359375 97.394531 111.414062 C 100.269531 108.578125 104.015625 106.8125 107.785156 106.808594 L 108 106.800781 C 108.226562 106.800781 108.449219 106.816406 108.675781 106.851562 C 109.3125 106.898438 109.945312 106.976562 110.574219 107.128906 C 111.671875 107.398438 112.667969 107.71875 113.585938 108.085938 L 114.378906 106.886719 C 112.886719 105.960938 111.542969 104.796875 110.386719 103.433594 L 110.988281 105.113281 C 107.765625 103.726562 105.21875 101.027344 103.371094 98.109375 C 101.382812 94.96875 100.269531 89.78125 100.136719 86.109375 C 99.742188 75.191406 108.835938 70.097656 118.171875 70.097656 C 120.644531 70.097656 123.136719 70.457031 125.46875 71.160156 C 128.238281 71.992188 131.03125 73.390625 132.785156 75.769531 C 133.191406 76.320312 134.984375 79.171875 134.296875 79.945312 L 133.53125 80.800781 C 136.128906 86.003906 137.421875 92.667969 137.183594 97.992188 C 127.789062 98.21875 134.320312 109.210938 122.632812 109.210938 C 122.339844 109.210938 122.03125 109.203125 121.710938 109.191406 C 119.101562 109.070312 116.667969 108.269531 114.527344 106.972656 C 114.285156 107.363281 114.035156 107.757812 113.773438 108.164062 C 117.984375 109.914062 120.269531 112.777344 120.992188 117.003906 L 131.011719 126.121094 L 150.65625 118.121094 L 150.65625 115.515625 C 150.65625 110.703125 154.460938 106.789062 159.222656 106.589844 C 158.09375 91.445312 159.621094 76.996094 167.339844 69.351562 C 169.875 66.84375 174.058594 64.625 179.320312 62.6875 L 168.246094 62.628906 C 163.824219 62.601562 160.261719 59.003906 160.289062 54.578125 C 160.308594 50.171875 163.886719 46.613281 168.285156 46.613281 L 168.332031 46.613281 L 179.441406 46.679688 C 180.851562 46.683594 182.175781 47.058594 183.316406 47.707031 L 188.328125 28.265625 C 191.023438 14.292969 223.511719 7.390625 256.359375 7.394531 "/>
<path style=" stroke:none;fill-rule:nonzero;fill:rgb(100%,100%,100%);fill-opacity:1;" d="M 154.292969 122.527344 C 155.339844 125.730469 158.78125 127.480469 161.984375 126.4375 L 169.734375 123.898438 C 172.9375 122.855469 174.6875 119.410156 173.644531 116.207031 C 172.597656 113.003906 169.15625 111.261719 165.953125 112.304688 L 158.195312 114.835938 C 154.996094 115.882812 153.25 119.328125 154.292969 122.527344 "/>
<path style=" stroke:none;fill-rule:nonzero;fill:rgb(45.098877%,45.098877%,45.098877%);fill-opacity:1;" d="M 154.292969 122.527344 L 153.820312 122.683594 C 154.730469 125.46875 157.3125 127.238281 160.09375 127.238281 C 160.769531 127.238281 161.457031 127.132812 162.140625 126.910156 L 169.890625 124.375 C 172.675781 123.464844 174.441406 120.878906 174.441406 118.101562 C 174.441406 117.421875 174.335938 116.730469 174.113281 116.050781 C 173.207031 113.265625 170.625 111.5 167.851562 111.503906 C 167.171875 111.5 166.476562 111.609375 165.796875 111.832031 L 158.042969 114.359375 C 155.257812 115.269531 153.492188 117.855469 153.492188 120.632812 C 153.492188 121.3125 153.597656 122.003906 153.820312 122.683594 L 154.292969 122.527344 L 154.769531 122.371094 C 154.582031 121.792969 154.492188 121.207031 154.492188 120.632812 C 154.492188 118.277344 155.992188 116.082031 158.351562 115.3125 L 166.109375 112.777344 C 166.6875 112.585938 167.273438 112.5 167.851562 112.496094 C 170.203125 112.5 172.398438 114 173.167969 116.363281 C 173.359375 116.941406 173.445312 117.527344 173.445312 118.101562 C 173.445312 120.460938 171.945312 122.652344 169.582031 123.421875 L 161.828125 125.960938 C 161.25 126.148438 160.664062 126.238281 160.09375 126.238281 C 157.734375 126.238281 155.539062 124.734375 154.769531 122.371094 L 154.292969 122.527344 "/>
<path style=" stroke:none;fill-rule:nonzero;fill:rgb(100%,100%,100%);fill-opacity:1;" d="M 157.203125 116.503906 C 157.707031 116.988281 158.511719 116.96875 158.996094 116.460938 L 163.726562 111.507812 C 164.207031 111 164.191406 110.199219 163.683594 109.714844 C 163.175781 109.230469 162.375 109.25 161.890625 109.753906 L 157.160156 114.710938 C 156.675781 115.21875 156.695312 116.019531 157.203125 116.503906 "/>
<path style=" stroke:none;fill-rule:nonzero;fill:rgb(45.098877%,45.098877%,45.098877%);fill-opacity:1;" d="M 157.203125 116.503906 L 156.855469 116.863281 C 157.199219 117.191406 157.640625 117.355469 158.078125 117.355469 C 158.542969 117.355469 159.011719 117.167969 159.355469 116.808594 L 164.085938 111.851562 C 164.414062 111.511719 164.578125 111.070312 164.578125 110.632812 C 164.578125 110.167969 164.394531 109.699219 164.03125 109.351562 C 163.691406 109.027344 163.246094 108.863281 162.808594 108.863281 C 162.34375 108.863281 161.875 109.046875 161.53125 109.410156 L 156.796875 114.363281 C 156.472656 114.707031 156.308594 115.148438 156.308594 115.582031 C 156.308594 116.046875 156.496094 116.515625 156.855469 116.863281 L 157.550781 116.144531 C 157.390625 115.988281 157.3125 115.789062 157.308594 115.582031 C 157.3125 115.390625 157.378906 115.203125 157.523438 115.054688 L 162.253906 110.101562 C 162.40625 109.941406 162.605469 109.863281 162.808594 109.863281 C 163 109.863281 163.1875 109.933594 163.339844 110.074219 C 163.496094 110.226562 163.574219 110.425781 163.578125 110.632812 C 163.574219 110.824219 163.507812 111.011719 163.363281 111.164062 L 158.632812 116.117188 L 158.636719 116.117188 C 158.480469 116.273438 158.28125 116.355469 158.078125 116.355469 C 157.886719 116.355469 157.699219 116.285156 157.546875 116.140625 L 157.550781 116.144531 L 157.203125 116.503906 "/>
<path style=" stroke:none;fill-rule:nonzero;fill:rgb(100%,100%,100%);fill-opacity:1;" d="M 104.59375 108.3125 C 106.308594 106.425781 109.222656 106.285156 111.105469 108.003906 L 131.011719 126.121094 L 158.886719 114.765625 L 157.234375 125.582031 L 157.15625 125.628906 L 157.019531 125.6875 L 131.800781 135.757812 C 130.152344 136.429688 128.273438 136.097656 126.960938 134.898438 L 104.90625 114.820312 C 103.023438 113.109375 102.886719 110.195312 104.59375 108.3125 "/>
<path style=" stroke:none;fill-rule:nonzero;fill:rgb(45.098877%,45.098877%,45.098877%);fill-opacity:1;" d="M 104.59375 108.3125 L 104.964844 108.648438 C 105.777344 107.753906 106.886719 107.300781 108.003906 107.300781 C 108.992188 107.300781 109.980469 107.652344 110.769531 108.371094 L 110.769531 108.375 L 130.675781 126.492188 C 130.820312 126.621094 131.023438 126.65625 131.203125 126.585938 L 158.261719 115.5625 L 156.742188 125.507812 L 157.234375 125.582031 L 156.992188 125.148438 L 156.933594 125.179688 L 156.820312 125.226562 L 157.019531 125.6875 L 156.832031 125.222656 L 131.613281 135.292969 C 131.109375 135.5 130.582031 135.597656 130.058594 135.597656 C 129.058594 135.597656 128.066406 135.230469 127.300781 134.527344 L 105.242188 114.449219 C 104.347656 113.636719 103.898438 112.527344 103.894531 111.410156 C 103.898438 110.421875 104.25 109.433594 104.964844 108.648438 L 104.59375 108.3125 L 104.226562 107.972656 C 103.335938 108.949219 102.898438 110.183594 102.898438 111.410156 C 102.898438 112.792969 103.460938 114.183594 104.570312 115.191406 L 126.625 135.269531 C 127.582031 136.140625 128.8125 136.597656 130.058594 136.597656 C 130.707031 136.597656 131.363281 136.476562 131.988281 136.222656 L 131.984375 136.222656 L 157.203125 126.152344 L 157.214844 126.148438 L 157.351562 126.089844 L 157.402344 126.066406 L 157.480469 126.019531 C 157.613281 125.945312 157.707031 125.8125 157.730469 125.660156 L 159.382812 114.839844 C 159.410156 114.664062 159.339844 114.484375 159.199219 114.371094 C 159.058594 114.261719 158.867188 114.234375 158.699219 114.300781 L 131.117188 125.539062 L 111.445312 107.632812 C 110.464844 106.742188 109.230469 106.300781 108.003906 106.300781 C 106.621094 106.300781 105.230469 106.863281 104.226562 107.972656 L 104.59375 108.3125 "/>
<path style=" stroke:none;fill-rule:nonzero;fill:rgb(45.098877%,45.098877%,45.098877%);fill-opacity:1;" d="M 150.65625 156.679688 C 150.65625 161.621094 154.660156 165.625 159.597656 165.625 L 172.921875 165.625 C 177.859375 165.625 181.859375 161.621094 181.859375 156.679688 L 181.859375 115.515625 C 181.859375 110.578125 177.859375 106.570312 172.921875 106.570312 L 159.597656 106.570312 C 154.660156 106.570312 150.65625 110.578125 150.65625 115.515625 L 150.65625 156.679688 "/>
<path style=" stroke:none;fill-rule:nonzero;fill:rgb(100%,100%,100%);fill-opacity:1;" d="M 150.65625 156.679688 L 150.15625 156.679688 C 150.15625 161.898438 154.382812 166.125 159.597656 166.125 L 172.921875 166.125 C 178.136719 166.125 182.359375 161.898438 182.359375 156.679688 L 182.359375 115.515625 C 182.359375 110.300781 178.136719 106.070312 172.921875 106.070312 L 159.597656 106.070312 C 154.382812 106.070312 150.15625 110.300781 150.15625 115.515625 L 150.15625 156.679688 L 151.15625 156.679688 L 151.15625 115.515625 C 151.15625 113.179688 152.097656 111.078125 153.628906 109.546875 C 155.160156 108.015625 157.265625 107.070312 159.597656 107.070312 L 172.921875 107.070312 C 175.253906 107.070312 177.359375 108.015625 178.886719 109.546875 C 180.417969 111.074219 181.359375 113.179688 181.359375 115.515625 L 181.359375 156.679688 C 181.359375 159.015625 180.417969 161.125 178.886719 162.652344 C 177.359375 164.179688 175.253906 165.125 172.921875 165.125 L 159.597656 165.125 C 157.265625 165.125 155.160156 164.179688 153.628906 162.652344 C 152.097656 161.125 151.15625 159.015625 151.15625 156.679688 L 150.65625 156.679688 "/>
<path style=" stroke:none;fill-rule:nonzero;fill:rgb(45.098877%,45.098877%,45.098877%);fill-opacity:1;" d="M 356.8125 201.308594 C 361.75 201.308594 365.753906 197.304688 365.753906 192.363281 L 365.753906 179.035156 C 365.753906 174.09375 361.75 170.089844 356.8125 170.089844 L 315.664062 170.089844 C 310.726562 170.089844 306.726562 174.09375 306.726562 179.035156 L 306.726562 192.363281 C 306.726562 197.304688 310.726562 201.308594 315.664062 201.308594 L 356.8125 201.308594 "/>
<path style=" stroke:none;fill-rule:nonzero;fill:rgb(100%,100%,100%);fill-opacity:1;" d="M 356.8125 201.308594 L 356.8125 201.808594 C 362.027344 201.808594 366.253906 197.582031 366.253906 192.363281 L 366.253906 179.035156 C 366.253906 173.820312 362.027344 169.589844 356.8125 169.589844 L 315.664062 169.589844 C 310.453125 169.589844 306.226562 173.820312 306.226562 179.035156 L 306.226562 192.363281 C 306.226562 197.582031 310.453125 201.808594 315.664062 201.808594 L 356.8125 201.808594 L 356.8125 200.808594 L 315.664062 200.808594 C 313.332031 200.808594 311.226562 199.863281 309.699219 198.332031 C 308.171875 196.808594 307.226562 194.699219 307.226562 192.363281 L 307.226562 179.035156 C 307.226562 176.703125 308.171875 174.59375 309.699219 173.0625 C 311.226562 171.535156 313.332031 170.589844 315.664062 170.589844 L 356.8125 170.589844 C 359.148438 170.589844 361.253906 171.535156 362.78125 173.0625 C 364.308594 174.59375 365.253906 176.703125 365.253906 179.035156 L 365.253906 192.363281 C 365.253906 194.699219 364.308594 196.804688 362.78125 198.332031 C 361.253906 199.863281 359.148438 200.808594 356.8125 200.808594 L 356.8125 201.308594 "/>
<path style=" stroke:none;fill-rule:nonzero;fill:rgb(100%,100%,100%);fill-opacity:1;" d="M 144.242188 197.527344 C 144.246094 197.242188 144.347656 190.464844 144.199219 183.320312 C 143.875 167.949219 142.773438 165.785156 140.984375 164.046875 C 136.507812 159.703125 125.617188 158.546875 109.515625 157.28125 C 105.011719 156.925781 100.753906 156.589844 98.449219 156.175781 L 96.542969 166.847656 C 99.375 167.355469 103.679688 167.695312 108.667969 168.085938 C 115.285156 168.609375 128.496094 169.644531 132.675781 171.4375 C 133.320312 175.554688 133.566406 187.453125 133.410156 197.359375 L 144.242188 197.527344 "/>
<path style=" stroke:none;fill-rule:nonzero;fill:rgb(45.098877%,45.098877%,45.098877%);fill-opacity:1;" d="M 144.242188 197.527344 L 144.742188 197.539062 C 144.746094 197.367188 144.78125 195.03125 144.78125 191.703125 C 144.78125 189.277344 144.761719 186.328125 144.699219 183.308594 C 144.535156 175.609375 144.179688 171.214844 143.628906 168.472656 C 143.351562 167.101562 143.023438 166.140625 142.640625 165.398438 C 142.25 164.652344 141.796875 164.136719 141.332031 163.6875 C 138.953125 161.394531 135.03125 160.019531 129.699219 159.015625 C 124.371094 158.019531 117.609375 157.414062 109.554688 156.78125 C 105.054688 156.425781 100.792969 156.089844 98.535156 155.683594 C 98.265625 155.636719 98.003906 155.816406 97.957031 156.089844 L 96.050781 166.761719 C 96.027344 166.890625 96.054688 167.027344 96.132812 167.136719 C 96.207031 167.246094 96.324219 167.316406 96.453125 167.339844 C 99.332031 167.855469 103.640625 168.191406 108.628906 168.585938 C 111.9375 168.84375 116.886719 169.234375 121.523438 169.78125 C 123.847656 170.054688 126.085938 170.367188 128 170.722656 C 129.910156 171.078125 131.5 171.476562 132.476562 171.898438 L 132.675781 171.4375 L 132.179688 171.515625 C 132.433594 173.128906 132.632812 176.058594 132.761719 179.601562 C 132.890625 183.144531 132.957031 187.320312 132.957031 191.476562 C 132.957031 193.460938 132.941406 195.441406 132.910156 197.351562 C 132.910156 197.484375 132.960938 197.609375 133.054688 197.703125 C 133.144531 197.800781 133.269531 197.851562 133.402344 197.855469 L 144.234375 198.023438 C 144.507812 198.027344 144.734375 197.808594 144.742188 197.539062 L 144.242188 197.527344 L 144.25 197.027344 L 133.417969 196.859375 L 133.410156 197.359375 L 133.910156 197.367188 C 133.941406 195.453125 133.957031 193.464844 133.957031 191.476562 C 133.957031 187.3125 133.890625 183.125 133.761719 179.566406 C 133.628906 176 133.4375 173.066406 133.167969 171.363281 C 133.140625 171.191406 133.03125 171.046875 132.871094 170.980469 C 131.757812 170.503906 130.128906 170.101562 128.183594 169.738281 C 122.347656 168.660156 113.671875 167.980469 108.707031 167.585938 C 103.722656 167.195312 99.417969 166.855469 96.628906 166.355469 L 96.542969 166.847656 L 97.035156 166.9375 L 98.9375 156.265625 L 98.449219 156.175781 L 98.363281 156.671875 C 100.71875 157.089844 104.96875 157.421875 109.476562 157.777344 C 117.523438 158.410156 124.261719 159.015625 129.519531 160 C 134.773438 160.980469 138.535156 162.355469 140.636719 164.40625 C 141.0625 164.824219 141.421875 165.230469 141.753906 165.863281 C 142.757812 167.746094 143.464844 171.824219 143.699219 183.328125 C 143.761719 186.339844 143.78125 189.28125 143.78125 191.703125 C 143.78125 195.023438 143.746094 197.359375 143.742188 197.515625 L 144.242188 197.527344 L 144.25 197.027344 L 144.242188 197.527344 "/>
<path style=" stroke:none;fill-rule:nonzero;fill:rgb(100%,100%,100%);fill-opacity:1;" d="M 116.625 103.5 C 116.625 103.5 112.535156 110.535156 110.214844 113.164062 "/>
<path style=" stroke:none;fill-rule:nonzero;fill:rgb(45.098877%,45.098877%,45.098877%);fill-opacity:1;" d="M 116.199219 103.25 C 116.199219 103.25 115.945312 103.683594 115.527344 104.382812 C 114.898438 105.429688 113.898438 107.066406 112.847656 108.679688 C 111.796875 110.292969 110.679688 111.890625 109.839844 112.835938 C 109.65625 113.039062 109.675781 113.359375 109.882812 113.539062 C 110.089844 113.722656 110.40625 113.703125 110.589844 113.496094 C 111.792969 112.128906 113.394531 109.710938 114.714844 107.613281 C 116.035156 105.515625 117.058594 103.753906 117.058594 103.75 C 117.195312 103.515625 117.117188 103.207031 116.875 103.070312 C 116.640625 102.929688 116.335938 103.011719 116.199219 103.25 "/>
<path style=" stroke:none;fill-rule:nonzero;fill:rgb(100%,100%,100%);fill-opacity:1;" d="M 92.554688 120.175781 C 91.328125 128.949219 86.414062 142.121094 101.710938 144.597656 C 116.507812 147.796875 120.875 129.386719 121.230469 121.464844 C 121.589844 113.542969 118.503906 109.058594 110.574219 107.128906 C 102.871094 105.253906 94.324219 111.613281 92.554688 120.175781 "/>
<path style=" stroke:none;fill-rule:nonzero;fill:rgb(45.098877%,45.098877%,45.098877%);fill-opacity:1;" d="M 92.554688 120.175781 L 92.0625 120.105469 C 91.542969 123.820312 90.332031 128.410156 90.328125 132.683594 C 90.328125 135.539062 90.875 138.285156 92.597656 140.511719 C 94.320312 142.738281 97.183594 144.371094 101.632812 145.089844 L 101.710938 144.597656 L 101.605469 145.085938 C 102.804688 145.34375 103.9375 145.46875 105.011719 145.46875 C 108.164062 145.46875 110.804688 144.40625 112.941406 142.710938 C 116.152344 140.167969 118.269531 136.242188 119.636719 132.269531 C 120.996094 128.296875 121.605469 124.273438 121.730469 121.484375 C 121.75 121.070312 121.757812 120.664062 121.757812 120.273438 C 121.761719 116.609375 120.949219 113.648438 119.128906 111.378906 C 117.304688 109.109375 114.515625 107.570312 110.691406 106.644531 C 109.734375 106.410156 108.765625 106.296875 107.796875 106.296875 C 104.222656 106.300781 100.695312 107.8125 97.859375 110.28125 C 95.019531 112.746094 92.871094 116.183594 92.066406 120.070312 L 92.0625 120.105469 L 92.554688 120.175781 L 93.046875 120.273438 C 93.800781 116.617188 95.832031 113.363281 98.515625 111.035156 C 101.195312 108.699219 104.507812 107.296875 107.796875 107.296875 C 108.6875 107.296875 109.578125 107.402344 110.457031 107.613281 C 114.152344 108.515625 116.707031 109.957031 118.347656 112.007812 C 119.992188 114.050781 120.761719 116.75 120.761719 120.273438 C 120.761719 120.648438 120.753906 121.039062 120.734375 121.441406 C 120.578125 125.027344 119.566406 130.855469 117.113281 135.726562 C 115.890625 138.160156 114.308594 140.355469 112.320312 141.929688 C 110.332031 143.5 107.9375 144.464844 105.011719 144.46875 C 104.011719 144.46875 102.949219 144.351562 101.816406 144.109375 L 101.792969 144.105469 C 97.5 143.40625 94.917969 141.878906 93.386719 139.898438 C 91.851562 137.917969 91.328125 135.421875 91.328125 132.683594 C 91.324219 128.59375 92.515625 124.042969 93.050781 120.242188 L 92.554688 120.175781 L 93.046875 120.273438 L 92.554688 120.175781 "/>
<path style=" stroke:none;fill-rule:nonzero;fill:rgb(100%,100%,100%);fill-opacity:1;" d="M 86.492188 150.261719 C 84.65625 157.746094 89.230469 165.296875 96.703125 167.140625 C 104.183594 168.976562 111.742188 164.402344 113.578125 156.917969 L 120.558594 128.910156 C 122.390625 121.425781 119.117188 110.859375 111.636719 109.019531 C 104.15625 107.179688 95.691406 109.558594 93.855469 117.039062 L 86.492188 150.261719 "/>
<path style=" stroke:none;fill-rule:nonzero;fill:rgb(45.098877%,45.098877%,45.098877%);fill-opacity:1;" d="M 86.492188 150.261719 L 86.007812 150.140625 C 85.722656 151.300781 85.585938 152.460938 85.585938 153.601562 C 85.585938 160.101562 89.996094 166 96.585938 167.625 C 97.742188 167.910156 98.898438 168.046875 100.042969 168.042969 C 106.542969 168.046875 112.441406 163.628906 114.066406 157.039062 L 121.039062 129.03125 C 121.386719 127.621094 121.554688 126.113281 121.554688 124.574219 C 121.554688 121.132812 120.714844 117.550781 119.074219 114.597656 C 117.441406 111.65625 114.984375 109.328125 111.757812 108.535156 C 110.121094 108.132812 108.441406 107.925781 106.789062 107.925781 C 103.742188 107.925781 100.785156 108.621094 98.375 110.097656 C 95.96875 111.570312 94.121094 113.84375 93.371094 116.917969 L 93.367188 116.929688 L 86.003906 150.152344 L 86.492188 150.261719 L 86.007812 150.140625 L 86.492188 150.261719 L 86.980469 150.371094 L 94.34375 117.148438 L 93.855469 117.039062 L 94.339844 117.15625 C 95.03125 114.34375 96.683594 112.308594 98.894531 110.949219 C 101.109375 109.59375 103.894531 108.925781 106.789062 108.925781 C 108.359375 108.925781 109.960938 109.121094 111.519531 109.503906 C 114.40625 110.214844 116.65625 112.304688 118.203125 115.082031 C 119.746094 117.859375 120.558594 121.296875 120.558594 124.574219 C 120.558594 126.039062 120.398438 127.46875 120.074219 128.792969 L 113.09375 156.796875 C 111.589844 162.9375 106.089844 167.042969 100.042969 167.046875 C 98.980469 167.042969 97.902344 166.917969 96.824219 166.65625 C 90.691406 165.144531 86.585938 159.648438 86.585938 153.601562 C 86.585938 152.539062 86.710938 151.460938 86.976562 150.382812 L 86.980469 150.371094 L 86.492188 150.261719 "/>
<path style=" stroke:none;fill-rule:nonzero;fill:rgb(100%,100%,100%);fill-opacity:1;" d="M 97.375 120.632812 C 96.507812 126.867188 93.015625 136.226562 103.882812 137.984375 C 114.394531 140.261719 117.5 127.183594 117.753906 121.550781 C 118.007812 115.921875 113.652344 111.15625 108.019531 110.902344 C 102.398438 110.648438 98.636719 114.550781 97.375 120.632812 "/>
<path style=" stroke:none;fill-rule:nonzero;fill:rgb(45.098877%,45.098877%,45.098877%);fill-opacity:1;" d="M 97.375 120.632812 L 96.882812 120.566406 C 96.519531 123.191406 95.652344 126.457031 95.648438 129.519531 C 95.648438 131.566406 96.039062 133.554688 97.292969 135.171875 C 98.542969 136.792969 100.617188 137.964844 103.800781 138.480469 L 103.882812 137.984375 L 103.777344 138.472656 C 104.636719 138.660156 105.453125 138.75 106.230469 138.75 C 108.5 138.75 110.410156 137.980469 111.953125 136.765625 C 114.265625 134.929688 115.78125 132.113281 116.753906 129.273438 C 117.730469 126.4375 118.164062 123.566406 118.253906 121.574219 C 118.261719 121.410156 118.265625 121.246094 118.265625 121.085938 C 118.265625 115.394531 113.785156 110.660156 108.042969 110.402344 C 107.863281 110.394531 107.6875 110.386719 107.511719 110.386719 C 104.71875 110.382812 102.34375 111.40625 100.546875 113.191406 C 98.746094 114.980469 97.511719 117.511719 96.886719 120.535156 L 96.882812 120.566406 L 97.375 120.632812 L 97.867188 120.734375 C 98.460938 117.859375 99.625 115.515625 101.25 113.902344 C 102.878906 112.289062 104.960938 111.390625 107.511719 111.386719 C 107.667969 111.386719 107.832031 111.390625 108 111.398438 C 113.207031 111.632812 117.265625 115.929688 117.265625 121.085938 C 117.265625 121.230469 117.261719 121.378906 117.257812 121.527344 C 117.144531 124.058594 116.429688 128.191406 114.699219 131.621094 C 113.835938 133.339844 112.722656 134.878906 111.332031 135.980469 C 109.9375 137.078125 108.273438 137.746094 106.230469 137.75 C 105.53125 137.75 104.785156 137.671875 103.988281 137.5 L 103.960938 137.496094 C 100.9375 137.003906 99.144531 135.929688 98.082031 134.558594 C 97.019531 133.1875 96.652344 131.445312 96.648438 129.519531 C 96.644531 126.640625 97.492188 123.414062 97.871094 120.703125 L 97.375 120.632812 L 97.867188 120.734375 L 97.375 120.632812 "/>
<path style=" stroke:none;fill-rule:nonzero;fill:rgb(100%,100%,100%);fill-opacity:1;" d="M 105.96875 90.027344 C 106.429688 79.859375 114.21875 71.949219 123.371094 72.363281 C 132.523438 72.773438 137.640625 87.824219 137.183594 97.992188 C 127.550781 98.226562 134.65625 109.773438 121.710938 109.191406 C 112.558594 108.777344 105.511719 100.199219 105.96875 90.027344 "/>
<path style=" stroke:none;fill-rule:nonzero;fill:rgb(45.098877%,45.098877%,45.098877%);fill-opacity:1;" d="M 105.96875 90.027344 L 106.46875 90.050781 C 106.6875 85.210938 108.605469 80.90625 111.539062 77.8125 C 114.472656 74.71875 118.40625 72.84375 122.683594 72.84375 C 122.90625 72.84375 123.125 72.847656 123.34375 72.859375 L 123.347656 72.859375 C 125.40625 72.953125 127.257812 73.832031 128.90625 75.289062 C 131.371094 77.46875 133.34375 80.953125 134.671875 84.839844 C 136.007812 88.71875 136.714844 92.992188 136.714844 96.71875 C 136.714844 97.144531 136.703125 97.5625 136.683594 97.972656 L 137.183594 97.992188 L 137.171875 97.492188 C 134.730469 97.542969 133.1875 98.339844 132.207031 99.519531 C 131.472656 100.398438 131.046875 101.441406 130.667969 102.480469 C 130.101562 104.042969 129.628906 105.605469 128.566406 106.746094 C 128.03125 107.316406 127.355469 107.796875 126.40625 108.148438 C 125.457031 108.496094 124.234375 108.710938 122.632812 108.710938 C 122.347656 108.710938 122.046875 108.703125 121.734375 108.691406 C 117.449219 108.496094 113.636719 106.449219 110.882812 103.257812 C 108.128906 100.0625 106.449219 95.71875 106.449219 90.960938 C 106.449219 90.65625 106.457031 90.355469 106.46875 90.050781 L 105.46875 90.003906 C 105.457031 90.324219 105.449219 90.644531 105.449219 90.960938 C 105.449219 95.953125 107.214844 100.527344 110.125 103.90625 C 113.035156 107.289062 117.105469 109.484375 121.691406 109.6875 C 122.015625 109.703125 122.328125 109.710938 122.632812 109.710938 C 125.625 109.714844 127.558594 108.996094 128.847656 107.863281 C 129.808594 107.019531 130.386719 105.96875 130.828125 104.910156 C 131.488281 103.328125 131.875 101.707031 132.6875 100.539062 C 133.09375 99.953125 133.589844 99.472656 134.292969 99.113281 C 135 98.757812 135.929688 98.523438 137.199219 98.492188 C 137.460938 98.488281 137.671875 98.277344 137.683594 98.015625 C 137.703125 97.589844 137.714844 97.15625 137.714844 96.71875 C 137.710938 91.585938 136.433594 85.542969 134.03125 80.675781 C 132.828125 78.246094 131.339844 76.109375 129.566406 74.539062 C 127.796875 72.96875 125.71875 71.964844 123.394531 71.863281 C 123.15625 71.847656 122.917969 71.84375 122.683594 71.84375 C 118.109375 71.84375 113.910156 73.855469 110.8125 77.125 C 107.710938 80.394531 105.699219 84.929688 105.46875 90.003906 L 105.96875 90.027344 "/>
<path style=" stroke:none;fill-rule:nonzero;fill:rgb(45.098877%,45.098877%,45.098877%);fill-opacity:1;" d="M 109.921875 102.128906 C 109.921875 102.128906 110.988281 93.484375 113.457031 93.59375 L 119.070312 94.027344 L 122.164062 80.890625 C 124.636719 81 129.964844 79.972656 133.53125 80.800781 L 134.296875 79.945312 C 134.984375 79.171875 133.191406 76.320312 132.785156 75.769531 C 131.03125 73.390625 128.238281 71.992188 125.46875 71.160156 C 114.328125 67.808594 99.636719 72.296875 100.136719 86.109375 C 100.269531 89.78125 101.382812 94.96875 103.371094 98.109375 C 105.21875 101.027344 107.765625 103.726562 110.988281 105.113281 L 109.921875 102.128906 "/>
<path style=" stroke:none;fill-rule:nonzero;fill:rgb(100%,100%,100%);fill-opacity:1;" d="M 109.921875 102.128906 L 110.417969 102.191406 C 110.417969 102.191406 110.433594 102.066406 110.464844 101.835938 C 110.582031 101.03125 110.90625 99.003906 111.457031 97.210938 C 111.730469 96.3125 112.0625 95.476562 112.425781 94.90625 C 112.609375 94.621094 112.796875 94.402344 112.964844 94.269531 C 113.136719 94.136719 113.273438 94.09375 113.410156 94.089844 L 113.425781 94.089844 L 113.429688 93.8125 L 113.394531 94.089844 L 113.425781 94.089844 L 113.429688 93.8125 L 113.394531 94.089844 L 119.460938 94.558594 L 122.652344 81.003906 L 122.164062 80.890625 L 122.144531 81.390625 C 122.285156 81.394531 122.429688 81.398438 122.578125 81.398438 C 124.453125 81.394531 127.367188 80.972656 130.078125 80.972656 C 131.28125 80.972656 132.4375 81.058594 133.417969 81.289062 L 133.707031 81.355469 L 134.667969 80.277344 C 134.890625 80.023438 134.953125 79.714844 134.953125 79.4375 C 134.949219 79.0625 134.847656 78.683594 134.710938 78.292969 C 134.285156 77.128906 133.476562 75.867188 133.1875 75.472656 C 131.332031 72.964844 128.4375 71.53125 125.613281 70.679688 C 123.230469 69.960938 120.695312 69.597656 118.171875 69.597656 C 113.515625 69.597656 108.902344 70.835938 105.421875 73.441406 C 101.941406 76.046875 99.617188 80.050781 99.625 85.421875 C 99.625 85.65625 99.628906 85.886719 99.636719 86.125 C 99.78125 89.882812 100.886719 95.09375 102.953125 98.375 C 104.835938 101.351562 107.441406 104.125 110.789062 105.570312 L 111.847656 106.023438 L 110.390625 101.960938 L 109.921875 102.128906 L 110.417969 102.191406 L 109.921875 102.128906 L 109.449219 102.296875 L 110.515625 105.28125 L 110.988281 105.113281 L 111.183594 104.652344 C 108.09375 103.328125 105.605469 100.703125 103.792969 97.839844 C 101.882812 94.835938 100.761719 89.679688 100.636719 86.089844 C 100.628906 85.863281 100.625 85.640625 100.625 85.421875 C 100.632812 80.339844 102.765625 76.691406 106.023438 74.242188 C 109.277344 71.796875 113.6875 70.59375 118.171875 70.597656 C 120.597656 70.597656 123.042969 70.949219 125.324219 71.636719 C 128.039062 72.449219 130.730469 73.816406 132.382812 76.066406 L 132.386719 76.070312 C 132.53125 76.265625 132.945312 76.902344 133.304688 77.59375 C 133.484375 77.9375 133.652344 78.300781 133.773438 78.628906 C 133.894531 78.957031 133.957031 79.257812 133.957031 79.4375 L 133.941406 79.582031 L 133.925781 79.609375 L 133.160156 80.464844 L 133.53125 80.800781 L 133.644531 80.3125 C 132.550781 80.058594 131.328125 79.972656 130.078125 79.972656 C 127.277344 79.976562 124.320312 80.402344 122.578125 80.398438 C 122.4375 80.398438 122.304688 80.394531 122.1875 80.390625 L 121.773438 80.375 L 118.683594 93.496094 L 113.496094 93.09375 L 113.457031 93.59375 L 113.519531 93.097656 L 113.410156 93.09375 C 112.953125 93.089844 112.546875 93.296875 112.226562 93.585938 C 111.667969 94.09375 111.261719 94.863281 110.910156 95.738281 C 109.875 98.363281 109.429688 102.050781 109.425781 102.070312 L 109.410156 102.1875 L 109.449219 102.296875 L 109.921875 102.128906 "/>
<path style=" stroke:none;fill-rule:nonzero;fill:rgb(100%,100%,100%);fill-opacity:1;" d="M 116.164062 95.332031 C 110.738281 94.441406 111.015625 92.257812 111.34375 89.996094 C 111.671875 87.730469 111.917969 86.226562 117.375 86.894531 L 116.164062 95.332031 "/>
<path style=" stroke:none;fill-rule:nonzero;fill:rgb(45.098877%,45.098877%,45.098877%);fill-opacity:1;" d="M 116.164062 95.332031 L 116.246094 94.84375 C 114.207031 94.507812 113.054688 93.988281 112.449219 93.433594 C 111.855469 92.878906 111.703125 92.296875 111.695312 91.539062 C 111.695312 91.085938 111.761719 90.585938 111.835938 90.066406 C 111.96875 89.109375 112.105469 88.394531 112.476562 87.976562 C 112.664062 87.761719 112.914062 87.585938 113.328125 87.449219 C 113.746094 87.316406 114.324219 87.230469 115.109375 87.230469 C 115.714844 87.230469 116.445312 87.28125 117.3125 87.386719 L 117.375 86.894531 L 116.878906 86.820312 L 115.671875 95.261719 L 116.164062 95.332031 L 116.246094 94.84375 L 116.164062 95.332031 L 116.65625 95.402344 L 117.871094 86.964844 C 117.886719 86.832031 117.851562 86.695312 117.773438 86.589844 C 117.691406 86.484375 117.570312 86.414062 117.4375 86.398438 C 116.535156 86.289062 115.769531 86.234375 115.109375 86.234375 C 114.253906 86.234375 113.578125 86.324219 113.023438 86.5 C 112.1875 86.761719 111.636719 87.285156 111.34375 87.910156 C 111.042969 88.53125 110.953125 89.210938 110.847656 89.921875 C 110.773438 90.445312 110.695312 90.988281 110.695312 91.539062 C 110.6875 92.441406 110.9375 93.414062 111.78125 94.171875 C 112.617188 94.929688 113.949219 95.472656 116.082031 95.824219 C 116.214844 95.847656 116.355469 95.8125 116.457031 95.734375 C 116.566406 95.65625 116.636719 95.535156 116.65625 95.402344 L 116.164062 95.332031 "/>
<path style=" stroke:none;fill-rule:nonzero;fill:rgb(100%,100%,100%);fill-opacity:1;" d="M 162.378906 148.414062 L 157.941406 147.316406 L 160.910156 146.554688 C 161.589844 146.386719 161.996094 145.695312 161.824219 145.019531 C 161.648438 144.34375 160.960938 143.929688 160.285156 144.101562 L 153.648438 145.804688 C 153.351562 145.878906 153.109375 146.054688 152.941406 146.28125 C 150.226562 146.300781 147.757812 148.148438 147.078125 150.914062 C 146.269531 154.183594 148.261719 157.492188 151.535156 158.296875 L 159.453125 160.257812 C 162.71875 161.066406 166.023438 159.074219 166.832031 155.800781 C 167.644531 152.535156 165.644531 149.222656 162.378906 148.414062 "/>
<path style=" stroke:none;fill-rule:nonzero;fill:rgb(45.098877%,45.098877%,45.098877%);fill-opacity:1;" d="M 162.378906 148.414062 L 162.5 147.929688 L 159.992188 147.308594 L 161.035156 147.042969 L 161.03125 147.042969 C 161.832031 146.835938 162.363281 146.125 162.363281 145.335938 C 162.363281 145.1875 162.347656 145.042969 162.308594 144.894531 C 162.101562 144.097656 161.386719 143.5625 160.59375 143.5625 C 160.457031 143.5625 160.308594 143.578125 160.15625 143.621094 L 160.285156 144.101562 L 160.164062 143.621094 L 153.523438 145.320312 L 153.527344 145.320312 C 153.109375 145.425781 152.769531 145.675781 152.539062 145.988281 L 152.941406 146.28125 L 152.9375 145.785156 C 150 145.808594 147.335938 147.804688 146.59375 150.792969 C 146.460938 151.324219 146.398438 151.855469 146.398438 152.382812 C 146.398438 155.34375 148.40625 158.039062 151.414062 158.785156 L 159.332031 160.746094 C 159.863281 160.875 160.398438 160.9375 160.917969 160.9375 C 163.886719 160.9375 166.574219 158.925781 167.320312 155.921875 C 167.449219 155.390625 167.515625 154.855469 167.515625 154.335938 C 167.515625 151.367188 165.5 148.671875 162.5 147.929688 L 162.257812 148.898438 C 164.808594 149.527344 166.515625 151.820312 166.515625 154.335938 C 166.515625 154.78125 166.460938 155.230469 166.347656 155.683594 C 165.71875 158.230469 163.433594 159.9375 160.917969 159.9375 C 160.476562 159.9375 160.023438 159.886719 159.570312 159.773438 L 151.65625 157.8125 C 149.101562 157.183594 147.394531 154.890625 147.394531 152.382812 C 147.394531 151.933594 147.449219 151.484375 147.558594 151.03125 C 148.1875 148.496094 150.453125 146.800781 152.945312 146.78125 C 153.105469 146.777344 153.25 146.703125 153.34375 146.578125 C 153.453125 146.429688 153.59375 146.328125 153.769531 146.289062 L 153.773438 146.289062 L 160.410156 144.585938 L 160.417969 144.585938 L 160.59375 144.5625 C 160.933594 144.5625 161.25 144.796875 161.339844 145.144531 L 161.363281 145.335938 C 161.363281 145.675781 161.132812 145.988281 160.785156 146.074219 L 157.820312 146.832031 C 157.597656 146.886719 157.441406 147.089844 157.441406 147.316406 C 157.445312 147.546875 157.601562 147.746094 157.824219 147.800781 L 162.257812 148.898438 L 162.378906 148.414062 "/>
<path style=" stroke:none;fill-rule:nonzero;fill:rgb(100%,100%,100%);fill-opacity:1;" d="M 113.574219 118.484375 L 123.28125 143.597656 L 153.285156 145.917969 L 146.976562 154.847656 L 146.882812 154.851562 L 146.734375 154.84375 L 119.675781 152.570312 C 117.902344 152.429688 116.375 151.292969 115.734375 149.636719 L 104.976562 121.808594 "/>
<path style=" stroke:none;fill-rule:nonzero;fill:rgb(45.098877%,45.098877%,45.098877%);fill-opacity:1;" d="M 113.109375 118.667969 L 122.8125 143.78125 C 122.882812 143.960938 123.050781 144.082031 123.242188 144.097656 L 152.371094 146.34375 L 146.566406 154.5625 L 146.976562 154.847656 L 146.945312 154.351562 L 146.875 154.355469 L 146.761719 154.351562 L 146.734375 154.84375 L 146.777344 154.351562 L 119.71875 152.070312 L 119.714844 152.070312 C 118.132812 151.949219 116.769531 150.929688 116.199219 149.453125 L 105.445312 121.628906 C 105.34375 121.371094 105.054688 121.242188 104.796875 121.34375 C 104.539062 121.441406 104.410156 121.730469 104.511719 121.988281 L 115.269531 149.816406 C 115.976562 151.648438 117.671875 152.914062 119.636719 153.066406 L 119.632812 153.066406 L 146.691406 155.34375 L 146.707031 155.34375 L 146.855469 155.351562 L 146.914062 155.351562 L 147.007812 155.347656 C 147.160156 155.335938 147.296875 155.257812 147.378906 155.136719 L 153.695312 146.203125 C 153.796875 146.058594 153.816406 145.867188 153.738281 145.703125 C 153.664062 145.539062 153.503906 145.429688 153.324219 145.417969 L 123.632812 143.125 L 114.042969 118.304688 C 113.941406 118.046875 113.652344 117.917969 113.394531 118.019531 C 113.136719 118.121094 113.011719 118.410156 113.109375 118.667969 "/>
<path style=" stroke:none;fill-rule:nonzero;fill:rgb(100%,100%,100%);fill-opacity:1;" d="M 92.164062 149.925781 C 91.65625 152.761719 91.316406 157.066406 90.925781 162.058594 C 90.40625 168.675781 89.371094 181.886719 87.574219 186.074219 C 83.457031 186.714844 71.566406 186.960938 61.667969 186.808594 L 61.5 197.644531 C 61.664062 197.644531 64.03125 197.679688 67.390625 197.679688 C 69.796875 197.679688 72.714844 197.660156 75.699219 197.601562 C 91.0625 197.28125 93.226562 196.171875 94.960938 194.382812 C 99.304688 189.90625 100.460938 179.015625 101.726562 162.910156 C 102.082031 158.398438 102.417969 154.140625 102.832031 151.832031 "/>
<path style=" stroke:none;fill-rule:nonzero;fill:rgb(45.098877%,45.098877%,45.098877%);fill-opacity:1;" d="M 91.671875 149.835938 C 91.160156 152.714844 90.820312 157.027344 90.425781 162.019531 C 90.167969 165.328125 89.78125 170.28125 89.234375 174.917969 C 88.960938 177.238281 88.648438 179.484375 88.292969 181.394531 C 87.9375 183.304688 87.539062 184.898438 87.117188 185.875 L 87.574219 186.074219 L 87.5 185.578125 C 85.878906 185.832031 82.945312 186.027344 79.394531 186.15625 C 75.84375 186.285156 71.660156 186.351562 67.5 186.351562 C 65.53125 186.351562 63.5625 186.335938 61.675781 186.308594 C 61.398438 186.304688 61.171875 186.523438 61.167969 186.800781 L 61 197.636719 C 60.996094 197.769531 61.046875 197.894531 61.140625 197.992188 C 61.234375 198.085938 61.359375 198.140625 61.492188 198.140625 C 61.660156 198.144531 64.027344 198.179688 67.390625 198.179688 C 69.800781 198.179688 72.71875 198.160156 75.710938 198.097656 C 83.40625 197.9375 87.800781 197.585938 90.539062 197.03125 C 91.910156 196.757812 92.871094 196.429688 93.617188 196.039062 C 94.359375 195.652344 94.871094 195.199219 95.320312 194.734375 C 97.617188 192.355469 98.988281 188.429688 99.992188 183.097656 C 100.988281 177.765625 101.59375 171.003906 102.226562 162.949219 C 102.582031 158.441406 102.917969 154.175781 103.320312 151.921875 C 103.367188 151.648438 103.191406 151.386719 102.917969 151.339844 C 102.648438 151.292969 102.386719 151.472656 102.339844 151.746094 C 101.917969 154.101562 101.585938 158.355469 101.230469 162.871094 C 100.597656 170.917969 99.992188 177.65625 99.007812 182.914062 C 98.03125 188.175781 96.65625 191.933594 94.601562 194.035156 C 94.191406 194.464844 93.78125 194.820312 93.148438 195.152344 C 91.265625 196.15625 87.195312 196.871094 75.691406 197.105469 C 72.710938 197.164062 69.796875 197.183594 67.390625 197.183594 C 64.035156 197.183594 61.671875 197.148438 61.503906 197.148438 L 61.5 197.644531 L 62 197.648438 L 62.167969 186.816406 L 61.667969 186.808594 L 61.660156 187.308594 C 63.554688 187.335938 65.523438 187.351562 67.5 187.351562 C 71.671875 187.351562 75.863281 187.285156 79.433594 187.15625 C 83.003906 187.027344 85.941406 186.832031 87.652344 186.566406 C 87.824219 186.539062 87.96875 186.425781 88.035156 186.269531 C 88.511719 185.15625 88.914062 183.527344 89.273438 181.574219 C 90.351562 175.742188 91.035156 167.0625 91.421875 162.097656 C 91.816406 157.109375 92.15625 152.800781 92.65625 150.011719 C 92.703125 149.738281 92.523438 149.480469 92.25 149.429688 C 91.980469 149.382812 91.71875 149.5625 91.671875 149.835938 "/>
<path style=" stroke:none;fill-rule:nonzero;fill:rgb(45.098877%,45.098877%,45.098877%);fill-opacity:1;" d="M 130.828125 201.722656 C 131.109375 198.636719 133.3125 193.253906 141.605469 193.253906 C 156.273438 192.351562 161.171875 198.636719 161.449219 201.722656 L 130.828125 201.722656 "/>
<path style=" stroke:none;fill-rule:nonzero;fill:rgb(100%,100%,100%);fill-opacity:1;" d="M 130.828125 201.722656 L 131.328125 201.765625 C 131.457031 200.308594 132.050781 198.296875 133.578125 196.671875 C 135.101562 195.050781 137.5625 193.757812 141.605469 193.753906 L 141.636719 193.753906 C 142.59375 193.695312 143.503906 193.664062 144.378906 193.664062 C 150.566406 193.664062 154.667969 195.066406 157.234375 196.78125 C 159.8125 198.484375 160.847656 200.53125 160.953125 201.765625 L 161.449219 201.722656 L 161.449219 201.222656 L 130.828125 201.222656 L 130.828125 201.722656 L 131.328125 201.765625 L 130.828125 201.722656 L 130.828125 202.21875 L 161.996094 202.21875 L 161.949219 201.675781 C 161.792969 200.027344 160.5625 197.792969 157.789062 195.945312 C 155.019531 194.101562 150.714844 192.664062 144.378906 192.664062 C 143.484375 192.664062 142.550781 192.695312 141.574219 192.753906 L 141.605469 193.253906 L 141.605469 192.753906 C 137.351562 192.75 134.5625 194.152344 132.847656 195.988281 C 131.128906 197.824219 130.480469 200.046875 130.332031 201.675781 L 130.28125 202.21875 L 130.828125 202.21875 L 130.828125 201.722656 "/>
<path style=" stroke:none;fill-rule:nonzero;fill:rgb(45.098877%,45.098877%,45.098877%);fill-opacity:1;" d="M 66.234375 193.164062 C 66.234375 189.082031 63.21875 185.777344 59.492188 185.777344 C 56.332031 185.777344 53.691406 188.164062 52.960938 191.378906 L 38.507812 196.359375 C 39.246094 198.695312 49.527344 203.207031 60.664062 200.433594 C 60.964844 200.375 61.261719 200.300781 61.546875 200.199219 L 61.582031 200.191406 L 61.59375 200.183594 C 64.285156 199.21875 66.234375 196.445312 66.234375 193.164062 "/>
<path style=" stroke:none;fill-rule:nonzero;fill:rgb(100%,100%,100%);fill-opacity:1;" d="M 66.234375 193.164062 L 66.734375 193.164062 C 66.734375 191 65.933594 189.035156 64.628906 187.605469 C 63.328125 186.171875 61.507812 185.273438 59.492188 185.277344 C 56.070312 185.277344 53.246094 187.855469 52.472656 191.269531 L 52.960938 191.378906 L 52.796875 190.90625 L 37.886719 196.042969 L 38.03125 196.507812 C 38.140625 196.839844 38.347656 197.140625 38.625 197.433594 C 39.589844 198.449219 41.492188 199.503906 44.070312 200.355469 C 46.644531 201.199219 49.886719 201.804688 53.457031 201.804688 C 55.789062 201.804688 58.265625 201.542969 60.785156 200.917969 L 60.664062 200.433594 L 60.761719 200.921875 C 61.078125 200.863281 61.398438 200.78125 61.714844 200.667969 L 61.546875 200.199219 L 61.648438 200.6875 L 61.804688 200.65625 L 61.90625 200.574219 L 61.59375 200.183594 L 61.761719 200.652344 C 64.667969 199.605469 66.734375 196.644531 66.734375 193.164062 L 65.734375 193.164062 C 65.738281 196.246094 63.902344 198.824219 61.425781 199.710938 L 61.34375 199.742188 L 61.269531 199.800781 L 61.582031 200.191406 L 61.480469 199.703125 L 61.441406 199.710938 L 61.414062 199.714844 L 61.378906 199.730469 C 61.125 199.820312 60.851562 199.886719 60.570312 199.941406 L 60.558594 199.945312 L 60.542969 199.949219 C 58.109375 200.554688 55.714844 200.808594 53.457031 200.808594 C 49.507812 200.808594 45.964844 200.035156 43.363281 199.042969 C 42.0625 198.550781 41 198 40.242188 197.488281 C 39.863281 197.226562 39.5625 196.976562 39.351562 196.75 C 39.140625 196.527344 39.023438 196.328125 38.984375 196.207031 L 38.507812 196.359375 L 38.671875 196.828125 L 53.386719 191.761719 L 53.449219 191.488281 C 54.136719 188.472656 56.597656 186.273438 59.492188 186.273438 C 61.207031 186.277344 62.757812 187.03125 63.890625 188.277344 C 65.027344 189.519531 65.734375 191.246094 65.734375 193.164062 L 66.234375 193.164062 "/>
<path style=" stroke:none;fill-rule:nonzero;fill:rgb(100%,100%,100%);fill-opacity:1;" d="M 286.472656 199.304688 C 286.472656 197.96875 285.390625 196.894531 284.058594 196.894531 L 232.480469 196.894531 C 231.148438 196.894531 230.070312 197.96875 230.070312 199.304688 C 230.070312 200.636719 231.148438 201.722656 232.480469 201.722656 L 284.058594 201.722656 C 285.390625 201.722656 286.472656 200.636719 286.472656 199.304688 "/>
<path style=" stroke:none;fill-rule:nonzero;fill:rgb(45.098877%,45.098877%,45.098877%);fill-opacity:1;" d="M 286.472656 199.304688 L 286.972656 199.304688 C 286.96875 197.691406 285.667969 196.394531 284.058594 196.394531 L 232.480469 196.394531 C 230.875 196.394531 229.570312 197.691406 229.570312 199.304688 C 229.570312 200.910156 230.871094 202.21875 232.480469 202.21875 L 284.058594 202.21875 C 285.667969 202.21875 286.972656 200.910156 286.972656 199.304688 L 285.972656 199.304688 C 285.96875 200.359375 285.117188 201.21875 284.058594 201.222656 L 232.480469 201.222656 C 231.421875 201.21875 230.570312 200.359375 230.570312 199.304688 C 230.570312 198.246094 231.421875 197.394531 232.480469 197.390625 L 284.058594 197.390625 C 285.117188 197.394531 285.972656 198.246094 285.972656 199.304688 L 286.472656 199.304688 "/>
<path style=" stroke:none;fill-rule:nonzero;fill:rgb(100%,100%,100%);fill-opacity:1;" d="M 255.855469 199.148438 L 260.683594 199.148438 L 260.683594 129.992188 L 255.855469 129.992188 Z M 255.855469 199.148438 "/>
<path style=" stroke:none;fill-rule:nonzero;fill:rgb(45.098877%,45.098877%,45.098877%);fill-opacity:1;" d="M 260.683594 129.992188 L 260.183594 129.992188 L 260.183594 198.648438 L 256.355469 198.648438 L 256.355469 130.492188 L 260.683594 130.492188 L 260.683594 129.992188 L 260.183594 129.992188 L 260.683594 129.992188 L 260.683594 129.492188 L 255.855469 129.492188 C 255.722656 129.492188 255.59375 129.546875 255.5 129.636719 C 255.40625 129.730469 255.355469 129.859375 255.355469 129.992188 L 255.355469 199.148438 C 255.355469 199.28125 255.40625 199.40625 255.5 199.5 C 255.597656 199.597656 255.722656 199.648438 255.855469 199.648438 L 260.683594 199.648438 C 260.816406 199.648438 260.941406 199.597656 261.035156 199.5 C 261.132812 199.40625 261.183594 199.28125 261.183594 199.148438 L 261.183594 129.992188 C 261.183594 129.859375 261.128906 129.730469 261.035156 129.636719 C 260.945312 129.546875 260.816406 129.492188 260.683594 129.492188 L 260.683594 129.992188 "/>
<path style=" stroke:none;fill-rule:nonzero;fill:rgb(45.098877%,45.098877%,45.098877%);fill-opacity:1;" d="M 268.246094 196.855469 L 247.773438 196.855469 L 247.773438 180.726562 L 268.246094 180.726562 L 268.246094 196.855469 "/>
<path style=" stroke:none;fill-rule:nonzero;fill:rgb(100%,100%,100%);fill-opacity:1;" d="M 268.246094 196.855469 L 268.246094 196.355469 L 248.273438 196.355469 L 248.273438 181.226562 L 267.746094 181.226562 L 267.746094 196.855469 L 268.246094 196.855469 L 268.246094 196.355469 L 268.246094 196.855469 L 268.746094 196.855469 L 268.746094 180.230469 L 247.273438 180.230469 L 247.273438 197.355469 L 268.746094 197.355469 L 268.746094 196.855469 L 268.246094 196.855469 "/>
<path style=" stroke:none;fill-rule:nonzero;fill:rgb(100%,100%,100%);fill-opacity:1;" d="M 160.289062 54.578125 C 160.261719 59.003906 163.824219 62.601562 168.246094 62.628906 L 179.355469 62.6875 C 183.777344 62.710938 187.378906 59.148438 187.402344 54.726562 C 187.425781 50.308594 183.863281 46.703125 179.441406 46.679688 L 168.332031 46.613281 C 163.910156 46.589844 160.308594 50.15625 160.289062 54.578125 "/>
<path style=" stroke:none;fill-rule:nonzero;fill:rgb(45.098877%,45.098877%,45.098877%);fill-opacity:1;" d="M 160.289062 54.578125 L 159.789062 54.574219 L 159.789062 54.625 C 159.789062 59.300781 163.5625 63.097656 168.242188 63.125 L 179.351562 63.1875 L 179.394531 63.1875 C 184.074219 63.1875 187.875 59.414062 187.902344 54.730469 L 187.902344 54.683594 C 187.902344 50.007812 184.128906 46.203125 179.445312 46.179688 L 168.335938 46.113281 L 168.332031 46.613281 L 168.347656 46.113281 L 168.285156 46.113281 C 163.609375 46.113281 159.8125 49.894531 159.789062 54.574219 L 160.785156 54.582031 C 160.804688 50.449219 164.160156 47.113281 168.285156 47.113281 L 168.332031 47.113281 L 179.441406 47.175781 C 183.574219 47.199219 186.90625 50.558594 186.90625 54.683594 L 186.90625 54.722656 C 186.882812 58.855469 183.523438 62.1875 179.394531 62.1875 L 179.355469 62.1875 L 179.359375 62.1875 L 168.246094 62.128906 C 164.117188 62.101562 160.785156 58.75 160.785156 54.625 L 160.785156 54.582031 L 160.289062 54.578125 "/>
<path style=" stroke:none;fill-rule:nonzero;fill:rgb(100%,100%,100%);fill-opacity:1;" d="M 327.382812 55.5 C 327.355469 59.925781 330.917969 63.523438 335.339844 63.550781 L 346.449219 63.609375 C 350.871094 63.632812 354.476562 60.070312 354.5 55.648438 C 354.523438 51.230469 350.957031 47.625 346.535156 47.597656 L 335.425781 47.539062 C 331.007812 47.515625 327.40625 51.082031 327.382812 55.5 "/>
<path style=" stroke:none;fill-rule:nonzero;fill:rgb(45.098877%,45.098877%,45.098877%);fill-opacity:1;" d="M 327.382812 55.5 L 326.882812 55.496094 L 326.882812 55.550781 C 326.882812 60.226562 330.660156 64.019531 335.335938 64.046875 L 346.449219 64.109375 L 346.492188 64.109375 C 351.167969 64.109375 354.96875 60.335938 354.996094 55.652344 L 354.996094 55.605469 C 354.996094 50.929688 351.222656 47.125 346.539062 47.097656 L 335.429688 47.039062 L 335.425781 47.539062 L 335.441406 47.039062 L 335.382812 47.035156 C 330.707031 47.035156 326.90625 50.816406 326.882812 55.496094 L 327.882812 55.503906 C 327.902344 51.371094 331.257812 48.035156 335.382812 48.035156 L 335.421875 48.035156 L 346.535156 48.097656 C 350.664062 48.121094 354 51.480469 354 55.605469 L 354 55.644531 C 353.976562 59.777344 350.617188 63.109375 346.492188 63.109375 L 346.449219 63.109375 L 346.453125 63.109375 L 335.34375 63.050781 C 331.214844 63.023438 327.882812 59.675781 327.882812 55.550781 L 327.882812 55.503906 L 327.382812 55.5 "/>
<path style=" stroke:none;fill-rule:nonzero;fill:rgb(100%,100%,100%);fill-opacity:1;" d="M 174.585938 81.59375 L 188.328125 28.265625 C 193.789062 -0.0429688 321.597656 0.664062 326.746094 29.027344 L 339.902344 82.503906 L 257.320312 68.230469 L 174.585938 81.59375 "/>
<path style=" stroke:none;fill-rule:nonzero;fill:rgb(45.098877%,45.098877%,45.098877%);fill-opacity:1;" d="M 174.585938 81.59375 L 175.070312 81.71875 L 188.8125 28.386719 L 188.820312 28.359375 C 189.453125 25.054688 191.875 22.097656 195.753906 19.523438 C 201.558594 15.671875 210.574219 12.742188 221.203125 10.800781 C 231.828125 8.863281 244.070312 7.890625 256.359375 7.890625 C 273.175781 7.890625 290.085938 9.707031 303.078125 13.304688 C 309.578125 15.101562 315.089844 17.347656 319.113281 20.003906 C 323.140625 22.667969 325.640625 25.71875 326.253906 29.117188 L 326.261719 29.148438 L 339.234375 81.882812 L 257.40625 67.738281 L 257.238281 67.738281 L 174.507812 81.101562 L 174.585938 81.59375 L 175.070312 81.71875 L 174.585938 81.59375 L 174.667969 82.089844 L 257.316406 68.738281 L 339.816406 83 C 339.984375 83.027344 340.152344 82.96875 340.269531 82.847656 C 340.382812 82.722656 340.425781 82.550781 340.386719 82.386719 L 327.230469 28.910156 L 326.746094 29.027344 L 327.238281 28.941406 C 326.546875 25.160156 323.8125 21.914062 319.660156 19.167969 C 313.433594 15.054688 303.949219 12.003906 292.847656 9.957031 C 281.742188 7.917969 269.027344 6.890625 256.359375 6.890625 C 239.902344 6.894531 223.535156 8.621094 210.90625 12.105469 C 204.589844 13.855469 199.207031 16.039062 195.203125 18.691406 C 191.203125 21.34375 188.550781 24.492188 187.835938 28.167969 L 188.328125 28.265625 L 187.84375 28.140625 L 174.101562 81.46875 C 174.0625 81.632812 174.105469 81.808594 174.21875 81.933594 C 174.332031 82.058594 174.5 82.117188 174.667969 82.089844 L 174.585938 81.59375 "/>
<path style=" stroke:none;fill-rule:nonzero;fill:rgb(100%,100%,100%);fill-opacity:1;" d="M 186.796875 75.769531 L 198.511719 30.296875 C 203.167969 6.160156 312.148438 6.761719 316.539062 30.949219 L 327.757812 76.550781 L 257.339844 64.375 L 186.796875 75.769531 "/>
<path style=" stroke:none;fill-rule:nonzero;fill:rgb(45.098877%,45.098877%,45.098877%);fill-opacity:1;" d="M 186.796875 75.769531 L 187.277344 75.894531 L 198.996094 30.421875 L 199 30.390625 C 199.539062 27.597656 201.585938 25.09375 204.878906 22.90625 C 209.820312 19.628906 217.503906 17.132812 226.558594 15.480469 C 235.613281 13.824219 246.046875 12.996094 256.523438 12.996094 C 270.859375 12.996094 285.273438 14.546875 296.34375 17.613281 C 301.875 19.140625 306.570312 21.050781 309.992188 23.316406 C 313.414062 25.578125 315.527344 28.164062 316.046875 31.039062 L 316.054688 31.066406 L 327.089844 75.925781 L 257.425781 63.878906 L 257.261719 63.878906 L 186.714844 75.277344 L 186.796875 75.769531 L 187.277344 75.894531 L 186.796875 75.769531 L 186.875 76.265625 L 257.335938 64.878906 L 327.671875 77.042969 C 327.839844 77.070312 328.007812 77.015625 328.125 76.890625 C 328.238281 76.769531 328.28125 76.59375 328.242188 76.429688 L 317.023438 30.828125 L 316.539062 30.949219 L 317.03125 30.859375 C 316.4375 27.605469 314.089844 24.824219 310.542969 22.480469 C 305.214844 18.960938 297.121094 16.359375 287.648438 14.613281 C 278.175781 12.871094 267.328125 11.996094 256.523438 11.996094 C 242.484375 11.996094 228.523438 13.472656 217.746094 16.449219 C 212.355469 17.941406 207.757812 19.800781 204.332031 22.074219 C 200.910156 24.34375 198.632812 27.039062 198.019531 30.203125 L 198.511719 30.296875 L 198.027344 30.171875 L 186.3125 75.644531 C 186.269531 75.808594 186.3125 75.984375 186.425781 76.109375 C 186.539062 76.230469 186.710938 76.292969 186.875 76.265625 L 186.796875 75.769531 "/>
<path style=" stroke:none;fill-rule:nonzero;fill:rgb(100%,100%,100%);fill-opacity:1;" d="M 167.339844 69.351562 C 179.816406 57.007812 232.035156 51.726562 257.40625 52.601562 C 282.78125 52.007812 334.933594 57.863281 347.277344 70.34375 C 367.828125 91.132812 342.996094 160.757812 342.996094 160.757812 L 170.625 159.804688 C 170.625 159.804688 146.566406 89.910156 167.339844 69.351562 "/>
<path style=" stroke:none;fill-rule:nonzero;fill:rgb(45.098877%,45.098877%,45.098877%);fill-opacity:1;" d="M 167.339844 69.351562 L 167.691406 69.707031 C 170.484375 66.9375 175.472656 64.457031 181.792969 62.355469 C 200.742188 56.035156 231.574219 53.003906 251.625 53.007812 C 253.664062 53.007812 255.59375 53.039062 257.386719 53.101562 L 257.417969 53.101562 C 258.585938 53.074219 259.820312 53.058594 261.101562 53.058594 C 274.28125 53.058594 292.867188 54.527344 309.601562 57.480469 C 317.96875 58.957031 325.875 60.800781 332.40625 63.015625 C 338.933594 65.226562 344.089844 67.824219 346.921875 70.699219 C 352.785156 76.609375 354.925781 86.75 354.917969 98.175781 C 354.917969 111.980469 351.824219 127.597656 348.726562 139.746094 C 347.171875 145.828125 345.625 151.039062 344.460938 154.730469 C 343.882812 156.574219 343.398438 158.042969 343.058594 159.046875 C 342.71875 160.050781 342.527344 160.589844 342.527344 160.589844 L 342.996094 160.757812 L 343 160.257812 L 170.628906 159.304688 L 170.625 159.804688 L 171.097656 159.640625 C 171.097656 159.640625 170.917969 159.113281 170.597656 158.128906 C 168.355469 151.253906 159.386719 122.144531 159.390625 98.136719 C 159.390625 92.21875 159.9375 86.609375 161.246094 81.738281 C 162.5625 76.863281 164.644531 72.722656 167.691406 69.707031 L 166.988281 69 C 163.777344 72.179688 161.628906 76.488281 160.285156 81.476562 C 158.9375 86.46875 158.390625 92.15625 158.390625 98.136719 C 158.394531 125.835938 170.148438 159.941406 170.152344 159.96875 C 170.222656 160.167969 170.410156 160.300781 170.625 160.304688 L 342.996094 161.257812 C 343.207031 161.257812 343.398438 161.125 343.46875 160.925781 C 343.472656 160.898438 355.910156 126.058594 355.917969 98.175781 C 355.910156 86.640625 353.804688 76.253906 347.636719 69.992188 C 344.585938 66.921875 339.328125 64.3125 332.722656 62.070312 C 312.925781 55.363281 280.980469 52.066406 261.101562 52.0625 C 259.8125 52.0625 258.570312 52.078125 257.394531 52.105469 L 257.40625 52.601562 L 257.421875 52.105469 C 255.613281 52.042969 253.671875 52.011719 251.625 52.011719 C 238.191406 52.011719 220.003906 53.351562 203.699219 56.136719 C 195.542969 57.527344 187.859375 59.28125 181.476562 61.40625 C 175.085938 63.539062 169.992188 66.035156 166.988281 69 L 167.339844 69.351562 "/>
<path style=" stroke:none;fill-rule:nonzero;fill:rgb(45.098877%,45.098877%,45.098877%);fill-opacity:1;" d="M 289.390625 117.3125 C 289.355469 117.3125 289.324219 117.3125 289.289062 117.3125 L 224.808594 116.957031 C 214.875 116.902344 207.667969 108.519531 207.695312 103.574219 L 207.722656 98.617188 L 216.679688 95.457031 L 297.652344 95.90625 L 306.574219 99.164062 L 306.546875 104.121094 C 306.519531 109.046875 299.273438 117.3125 289.390625 117.3125 "/>
<path style=" stroke:none;fill-rule:nonzero;fill:rgb(45.098877%,45.098877%,45.098877%);fill-opacity:1;" d="M 300.164062 144.703125 C 300.121094 144.703125 300.074219 144.703125 300.03125 144.703125 L 213.765625 144.226562 C 201.410156 144.15625 192.214844 134.457031 191.015625 127.785156 L 322.964844 128.515625 C 321.691406 135.148438 312.449219 144.703125 300.164062 144.703125 "/>
<path style=" stroke:none;fill-rule:nonzero;fill:rgb(45.098877%,45.098877%,45.098877%);fill-opacity:1;" d="M 165.023438 92.324219 C 165.054688 86.980469 171.574219 82.683594 179.582031 82.726562 C 187.59375 82.773438 198.648438 94.316406 198.621094 99.660156 C 198.589844 105 187.453125 102.867188 179.476562 102.078125 C 171.503906 101.292969 165 97.664062 165.023438 92.324219 "/>
<path style=" stroke:none;fill-rule:nonzero;fill:rgb(100%,100%,100%);fill-opacity:1;" d="M 175.042969 94.910156 C 175.0625 91.527344 179.183594 88.804688 184.257812 88.832031 C 189.328125 88.863281 196.320312 96.164062 196.304688 99.550781 C 196.285156 102.933594 189.238281 101.582031 184.191406 101.082031 C 179.144531 100.585938 175.023438 98.289062 175.042969 94.910156 "/>
<path style=" stroke:none;fill-rule:nonzero;fill:rgb(45.098877%,45.098877%,45.098877%);fill-opacity:1;" d="M 175.042969 94.910156 L 175.542969 94.910156 C 175.550781 93.441406 176.445312 92.066406 178.007812 91.027344 C 179.5625 89.992188 181.753906 89.332031 184.179688 89.332031 L 184.253906 89.332031 C 185.402344 89.339844 186.722656 89.765625 188.039062 90.480469 C 190.019531 91.550781 191.992188 93.257812 193.445312 94.992188 C 194.175781 95.859375 194.777344 96.734375 195.183594 97.53125 C 195.597656 98.324219 195.8125 99.039062 195.808594 99.550781 L 195.808594 99.546875 C 195.804688 99.894531 195.71875 100.128906 195.574219 100.332031 C 195.355469 100.632812 194.929688 100.878906 194.300781 101.042969 C 193.675781 101.203125 192.867188 101.273438 191.960938 101.273438 C 189.65625 101.273438 186.722656 100.832031 184.238281 100.585938 C 181.785156 100.34375 179.5625 99.660156 178 98.660156 C 177.214844 98.164062 176.597656 97.589844 176.179688 96.964844 C 175.765625 96.335938 175.542969 95.664062 175.542969 94.929688 L 175.542969 94.910156 L 175.042969 94.910156 L 174.542969 94.902344 L 174.542969 94.929688 C 174.542969 95.871094 174.835938 96.75 175.347656 97.519531 C 176.121094 98.671875 177.363281 99.582031 178.878906 100.261719 C 180.402344 100.941406 182.210938 101.390625 184.140625 101.582031 C 186.589844 101.820312 189.539062 102.273438 191.960938 102.273438 C 193.238281 102.269531 194.371094 102.15625 195.261719 101.769531 C 195.707031 101.574219 196.09375 101.304688 196.371094 100.925781 C 196.652344 100.546875 196.804688 100.074219 196.804688 99.554688 C 196.796875 98.53125 196.3125 97.386719 195.558594 96.175781 C 194.414062 94.371094 192.613281 92.445312 190.59375 90.941406 C 188.570312 89.441406 186.339844 88.351562 184.261719 88.332031 L 184.257812 88.832031 L 184.285156 88.335938 L 184.179688 88.332031 C 181.574219 88.332031 179.203125 89.03125 177.457031 90.191406 C 175.710938 91.347656 174.554688 93.007812 174.542969 94.90625 L 174.542969 94.902344 L 175.042969 94.910156 "/>
<path style=" stroke:none;fill-rule:nonzero;fill:rgb(100%,100%,100%);fill-opacity:1;" d="M 175.613281 86.800781 C 175.605469 88.226562 176.753906 89.386719 178.175781 89.394531 C 179.59375 89.402344 180.753906 88.253906 180.765625 86.828125 C 180.773438 85.410156 179.625 84.25 178.203125 84.246094 C 176.78125 84.234375 175.621094 85.382812 175.613281 86.800781 "/>
<path style=" stroke:none;fill-rule:nonzero;fill:rgb(45.098877%,45.098877%,45.098877%);fill-opacity:1;" d="M 175.613281 86.800781 L 175.113281 86.800781 C 175.113281 88.503906 176.476562 89.882812 178.175781 89.894531 L 178.210938 89.894531 L 178.191406 89.535156 L 178.191406 89.894531 L 178.210938 89.894531 L 178.191406 89.535156 L 178.191406 89.894531 C 179.878906 89.894531 181.253906 88.527344 181.265625 86.832031 L 181.265625 86.828125 C 181.265625 85.128906 179.898438 83.75 178.207031 83.746094 L 178.203125 84.246094 L 178.242188 83.746094 L 178.1875 83.742188 C 176.496094 83.742188 175.121094 85.109375 175.113281 86.796875 L 175.113281 86.800781 L 175.613281 86.800781 L 176.113281 86.804688 C 176.117188 85.667969 177.046875 84.742188 178.1875 84.742188 L 178.1875 84.464844 L 178.164062 84.742188 L 178.1875 84.742188 L 178.1875 84.464844 L 178.164062 84.742188 L 178.203125 84.742188 C 179.339844 84.75 180.265625 85.671875 180.265625 86.828125 C 180.257812 87.96875 179.328125 88.894531 178.191406 88.894531 L 178.160156 88.894531 L 178.175781 89.25 L 178.175781 88.894531 L 178.160156 88.894531 L 178.175781 89.25 L 178.175781 88.894531 L 178.179688 88.894531 C 177.035156 88.886719 176.113281 87.957031 176.113281 86.800781 L 175.613281 86.800781 "/>
<path style=" stroke:none;fill-rule:nonzero;fill:rgb(100%,100%,100%);fill-opacity:1;" d="M 173.246094 98.816406 C 174.8125 98.824219 172.679688 95.800781 172.699219 92.089844 C 172.71875 88.378906 174.886719 85.386719 173.320312 85.375 C 171.75 85.371094 167.03125 88.347656 167.015625 92.0625 C 166.992188 95.773438 171.675781 98.808594 173.246094 98.816406 "/>
<path style=" stroke:none;fill-rule:nonzero;fill:rgb(45.098877%,45.098877%,45.098877%);fill-opacity:1;" d="M 173.246094 98.816406 L 173.246094 99.316406 L 173.300781 99.3125 L 173.253906 98.855469 L 173.253906 99.316406 L 173.300781 99.3125 L 173.253906 98.855469 L 173.253906 99.316406 C 173.542969 99.320312 173.855469 99.230469 174.066406 98.988281 C 174.273438 98.746094 174.316406 98.460938 174.320312 98.210938 C 174.316406 97.859375 174.234375 97.496094 174.128906 97.070312 C 173.804688 95.816406 173.199219 94.066406 173.199219 92.148438 L 173.199219 92.097656 C 173.207031 90.800781 173.488281 89.578125 173.78125 88.539062 C 173.925781 88.015625 174.070312 87.539062 174.183594 87.117188 C 174.296875 86.691406 174.382812 86.328125 174.386719 85.972656 C 174.386719 85.722656 174.339844 85.4375 174.128906 85.199219 C 173.917969 84.957031 173.605469 84.875 173.320312 84.875 L 173.320312 85.375 L 173.433594 84.890625 L 173.3125 84.875 C 172.769531 84.882812 172.148438 85.097656 171.4375 85.453125 C 170.386719 85.992188 169.1875 86.863281 168.222656 87.992188 C 167.261719 89.113281 166.523438 90.503906 166.515625 92.058594 L 166.515625 92.085938 C 166.523438 94.15625 167.792969 95.933594 169.210938 97.207031 C 169.921875 97.84375 170.683594 98.359375 171.378906 98.722656 C 172.085938 99.085938 172.703125 99.304688 173.246094 99.316406 L 173.246094 98.816406 L 173.25 98.316406 C 173.007812 98.320312 172.453125 98.160156 171.84375 97.835938 C 170.914062 97.355469 169.804688 96.53125 168.957031 95.515625 C 168.101562 94.503906 167.511719 93.3125 167.515625 92.085938 L 167.515625 92.066406 C 167.515625 90.429688 168.59375 88.855469 169.90625 87.703125 C 170.5625 87.125 171.269531 86.660156 171.894531 86.34375 C 172.511719 86.027344 173.066406 85.871094 173.3125 85.875 L 173.3125 85.402344 L 173.203125 85.863281 L 173.3125 85.875 L 173.3125 85.402344 L 173.203125 85.863281 L 173.316406 85.875 L 173.417969 85.886719 L 173.4375 85.832031 L 173.398438 85.875 L 173.417969 85.886719 L 173.4375 85.832031 L 173.398438 85.875 L 173.46875 85.796875 L 173.378906 85.851562 L 173.398438 85.875 L 173.46875 85.796875 L 173.378906 85.851562 L 173.40625 85.835938 L 173.375 85.847656 L 173.378906 85.851562 L 173.40625 85.835938 L 173.375 85.847656 L 173.390625 85.972656 C 173.394531 86.144531 173.332031 86.460938 173.222656 86.855469 C 172.902344 88.054688 172.210938 89.941406 172.199219 92.089844 L 172.199219 92.148438 C 172.199219 93.5625 172.492188 94.859375 172.777344 95.921875 C 172.921875 96.453125 173.0625 96.925781 173.164062 97.320312 C 173.265625 97.714844 173.324219 98.035156 173.324219 98.210938 L 173.3125 98.335938 L 173.308594 98.34375 L 173.386719 98.378906 L 173.347656 98.308594 L 173.308594 98.34375 L 173.386719 98.378906 L 173.347656 98.308594 L 173.355469 98.324219 L 173.347656 98.304688 L 173.347656 98.308594 L 173.355469 98.324219 L 173.347656 98.304688 L 173.253906 98.316406 L 173.203125 98.320312 L 173.246094 98.777344 L 173.246094 98.316406 L 173.203125 98.320312 L 173.246094 98.777344 L 173.246094 98.316406 L 173.25 98.316406 L 173.246094 98.816406 "/>
<path style=" stroke:none;fill-rule:nonzero;fill:rgb(45.098877%,45.098877%,45.098877%);fill-opacity:1;" d="M 191.871094 110.464844 C 192.296875 108.953125 187.1875 109.75 181.605469 108.179688 C 176.023438 106.605469 172.082031 103.257812 171.65625 104.769531 C 171.230469 106.277344 174.480469 112.074219 180.066406 113.652344 C 185.648438 115.226562 191.449219 111.980469 191.871094 110.464844 "/>
<path style=" stroke:none;fill-rule:nonzero;fill:rgb(100%,100%,100%);fill-opacity:1;" d="M 189.503906 118.339844 C 189.492188 121.050781 191.671875 123.261719 194.386719 123.273438 C 197.09375 123.289062 199.304688 121.101562 199.320312 118.398438 C 199.332031 115.683594 197.148438 113.472656 194.4375 113.457031 C 191.726562 113.441406 189.519531 115.628906 189.503906 118.339844 "/>
<path style=" stroke:none;fill-rule:nonzero;fill:rgb(45.098877%,45.098877%,45.098877%);fill-opacity:1;" d="M 189.503906 118.339844 L 189.003906 118.335938 L 189.003906 118.363281 C 189.003906 121.335938 191.40625 123.757812 194.382812 123.773438 L 194.414062 123.773438 C 197.382812 123.773438 199.800781 121.367188 199.820312 118.398438 L 199.820312 118.371094 C 199.820312 115.390625 197.417969 112.972656 194.441406 112.957031 L 194.4375 113.457031 L 194.464844 112.960938 L 194.410156 112.957031 C 191.441406 112.957031 189.023438 115.359375 189.003906 118.335938 L 190.003906 118.34375 C 190.019531 115.914062 191.988281 113.957031 194.410156 113.957031 L 194.410156 113.835938 L 194.40625 113.957031 L 194.410156 113.957031 L 194.410156 113.835938 L 194.40625 113.957031 L 194.4375 113.957031 C 196.863281 113.96875 198.820312 115.941406 198.820312 118.371094 L 198.820312 118.394531 C 198.804688 120.8125 196.832031 122.773438 194.414062 122.773438 L 194.386719 122.773438 C 191.960938 122.761719 190.003906 120.785156 190.003906 118.363281 L 190.003906 118.34375 L 189.503906 118.339844 "/>
<path style=" stroke:none;fill-rule:nonzero;fill:rgb(45.098877%,45.098877%,45.098877%);fill-opacity:1;" d="M 191.191406 118.351562 C 191.179688 120.132812 192.609375 121.582031 194.394531 121.59375 C 196.171875 121.601562 197.625 120.164062 197.636719 118.386719 C 197.644531 116.605469 196.207031 115.148438 194.429688 115.140625 C 192.648438 115.132812 191.199219 116.566406 191.191406 118.351562 "/>
<path style=" stroke:none;fill-rule:nonzero;fill:rgb(45.098877%,45.098877%,45.098877%);fill-opacity:1;" d="M 349.339844 93.339844 C 349.371094 87.996094 342.898438 83.628906 334.890625 83.582031 C 326.878906 83.542969 315.695312 94.957031 315.664062 100.304688 C 315.632812 105.648438 326.796875 103.632812 334.78125 102.9375 C 342.757812 102.242188 349.3125 98.683594 349.339844 93.339844 "/>
<path style=" stroke:none;fill-rule:nonzero;fill:rgb(100%,100%,100%);fill-opacity:1;" d="M 339.296875 95.8125 C 339.3125 92.429688 335.21875 89.664062 330.148438 89.636719 C 325.078125 89.613281 318.003906 96.835938 317.984375 100.222656 C 317.964844 103.601562 325.023438 102.328125 330.078125 101.890625 C 335.128906 101.449219 339.273438 99.199219 339.296875 95.8125 "/>
<path style=" stroke:none;fill-rule:nonzero;fill:rgb(45.098877%,45.098877%,45.098877%);fill-opacity:1;" d="M 339.296875 95.8125 L 339.796875 95.816406 L 339.796875 95.789062 C 339.792969 93.894531 338.644531 92.21875 336.898438 91.046875 C 335.148438 89.867188 332.769531 89.152344 330.152344 89.136719 L 330.148438 89.636719 L 330.175781 89.140625 L 330.121094 89.136719 C 328.734375 89.140625 327.277344 89.621094 325.855469 90.375 C 323.726562 91.507812 321.667969 93.257812 320.117188 95.0625 C 319.34375 95.964844 318.695312 96.882812 318.234375 97.757812 C 317.777344 98.628906 317.492188 99.457031 317.484375 100.21875 L 317.484375 100.222656 C 317.480469 100.757812 317.636719 101.246094 317.929688 101.628906 C 318.371094 102.207031 319.046875 102.535156 319.824219 102.730469 C 320.609375 102.921875 321.523438 102.992188 322.515625 102.992188 C 324.894531 102.992188 327.75 102.59375 330.121094 102.386719 C 332.707031 102.160156 335.074219 101.476562 336.839844 100.378906 C 337.71875 99.828125 338.449219 99.171875 338.96875 98.410156 C 339.492188 97.644531 339.792969 96.765625 339.796875 95.816406 L 338.796875 95.808594 C 338.789062 96.550781 338.566406 97.222656 338.144531 97.847656 C 337.511719 98.78125 336.421875 99.59375 335.011719 100.207031 C 333.601562 100.820312 331.886719 101.230469 330.035156 101.390625 C 327.628906 101.601562 324.789062 101.992188 322.515625 101.992188 C 321.257812 101.996094 320.171875 101.867188 319.472656 101.566406 C 319.128906 101.417969 318.882812 101.234375 318.726562 101.027344 C 318.574219 100.820312 318.484375 100.578125 318.484375 100.222656 C 318.480469 99.550781 318.878906 98.519531 319.59375 97.414062 C 320.664062 95.75 322.421875 93.90625 324.351562 92.5 C 326.285156 91.085938 328.398438 90.128906 330.121094 90.136719 L 330.121094 90.125 L 330.121094 90.136719 L 330.121094 90.125 L 330.121094 90.136719 L 330.144531 90.136719 C 332.585938 90.148438 334.785156 90.824219 336.339844 91.875 C 337.902344 92.929688 338.796875 94.320312 338.796875 95.789062 L 338.796875 95.808594 L 339.296875 95.8125 "/>
<path style=" stroke:none;fill-rule:nonzero;fill:rgb(100%,100%,100%);fill-opacity:1;" d="M 338.8125 87.703125 C 338.804688 89.125 337.648438 90.273438 336.222656 90.265625 C 334.800781 90.257812 333.65625 89.097656 333.664062 87.671875 C 333.671875 86.253906 334.832031 85.109375 336.253906 85.117188 C 337.675781 85.125 338.820312 86.285156 338.8125 87.703125 "/>
<path style=" stroke:none;fill-rule:nonzero;fill:rgb(45.098877%,45.098877%,45.098877%);fill-opacity:1;" d="M 338.8125 87.703125 L 338.3125 87.699219 C 338.308594 88.84375 337.378906 89.765625 336.238281 89.765625 L 336.238281 90.121094 L 336.246094 89.765625 L 336.238281 89.765625 L 336.238281 90.121094 L 336.246094 89.765625 L 336.125 89.777344 L 336.222656 90.265625 L 336.226562 89.765625 C 335.085938 89.761719 334.164062 88.832031 334.164062 87.671875 C 334.167969 86.535156 335.097656 85.613281 336.238281 85.613281 L 336.253906 85.613281 L 336.242188 85.148438 L 336.109375 85.59375 L 336.253906 85.613281 L 336.242188 85.148438 L 336.109375 85.59375 L 336.25 85.613281 C 337.394531 85.621094 338.3125 86.542969 338.3125 87.703125 L 338.3125 87.699219 L 338.8125 87.703125 L 339.3125 87.703125 C 339.316406 86 337.949219 84.625 336.253906 84.617188 L 336.253906 85.117188 L 336.398438 84.636719 L 336.257812 84.613281 L 336.234375 84.613281 L 336.238281 84.925781 L 336.238281 84.613281 L 336.234375 84.613281 L 336.238281 84.925781 L 336.238281 84.613281 C 334.546875 84.613281 333.171875 85.980469 333.164062 87.671875 C 333.164062 89.375 334.527344 90.757812 336.222656 90.765625 L 336.324219 90.753906 L 336.230469 90.300781 L 336.230469 90.765625 L 336.324219 90.753906 L 336.230469 90.300781 L 336.230469 90.765625 L 336.230469 90.40625 L 336.222656 90.765625 L 336.230469 90.765625 L 336.230469 90.40625 L 336.222656 90.765625 L 336.238281 90.765625 C 337.929688 90.765625 339.304688 89.398438 339.3125 87.703125 L 338.8125 87.703125 "/>
<path style=" stroke:none;fill-rule:nonzero;fill:rgb(100%,100%,100%);fill-opacity:1;" d="M 341.050781 99.742188 C 339.480469 99.734375 341.648438 96.738281 341.667969 93.027344 C 341.6875 89.316406 339.554688 86.292969 341.125 86.304688 C 342.695312 86.3125 347.375 89.34375 347.355469 93.058594 C 347.332031 96.765625 342.617188 99.75 341.050781 99.742188 "/>
<path style=" stroke:none;fill-rule:nonzero;fill:rgb(45.098877%,45.098877%,45.098877%);fill-opacity:1;" d="M 341.050781 99.742188 L 341.054688 99.242188 L 340.957031 99.234375 L 340.9375 99.285156 L 340.972656 99.242188 L 340.957031 99.234375 L 340.9375 99.285156 L 340.972656 99.242188 L 340.90625 99.320312 L 340.992188 99.265625 L 340.972656 99.242188 L 340.90625 99.320312 L 340.992188 99.265625 L 340.964844 99.285156 L 340.996094 99.269531 L 340.992188 99.265625 L 340.964844 99.285156 L 340.996094 99.269531 L 340.980469 99.148438 C 340.980469 98.972656 341.039062 98.652344 341.148438 98.257812 C 341.46875 97.058594 342.15625 95.171875 342.167969 93.027344 L 342.167969 92.972656 C 342.167969 91.558594 341.875 90.261719 341.589844 89.199219 C 341.453125 88.664062 341.3125 88.191406 341.207031 87.796875 C 341.105469 87.402344 341.046875 87.082031 341.046875 86.90625 L 341.0625 86.78125 L 341.066406 86.769531 L 340.988281 86.734375 L 341.027344 86.808594 L 341.066406 86.769531 L 340.988281 86.734375 L 341.027344 86.808594 L 341.019531 86.792969 L 341.023438 86.808594 L 341.027344 86.808594 L 341.019531 86.792969 L 341.023438 86.808594 L 341.117188 86.796875 L 341.117188 86.320312 L 340.882812 86.738281 L 341.117188 86.796875 L 341.117188 86.320312 L 340.882812 86.738281 L 341.125 86.800781 C 341.367188 86.792969 341.914062 86.953125 342.527344 87.277344 C 343.457031 87.757812 344.566406 88.582031 345.417969 89.597656 C 346.269531 90.613281 346.855469 91.804688 346.855469 93.03125 L 346.855469 93.058594 L 346.855469 93.054688 C 346.855469 94.6875 345.777344 96.257812 344.457031 97.414062 C 343.800781 97.988281 343.097656 98.457031 342.472656 98.773438 C 341.855469 99.09375 341.300781 99.25 341.054688 99.242188 L 341.054688 99.730469 L 341.082031 99.242188 L 341.054688 99.242188 L 341.054688 99.730469 L 341.082031 99.242188 L 341.058594 99.671875 L 341.085938 99.242188 L 341.082031 99.242188 L 341.058594 99.671875 L 341.085938 99.242188 L 340.949219 99.253906 L 340.699219 99.390625 L 341.050781 99.742188 L 341.054688 99.242188 L 341.050781 99.742188 L 341.40625 100.097656 L 341.054688 99.746094 L 341.09375 100.242188 L 341.40625 100.097656 L 341.054688 99.746094 L 341.09375 100.242188 L 341.054688 99.75 L 341.027344 100.242188 L 341.09375 100.242188 L 341.054688 99.75 L 341.027344 100.242188 L 341.054688 100.242188 C 341.597656 100.238281 342.21875 100.019531 342.925781 99.664062 C 343.980469 99.128906 345.183594 98.25 346.144531 97.125 C 347.105469 96 347.84375 94.613281 347.855469 93.0625 L 347.855469 93.03125 C 347.847656 90.960938 346.578125 89.179688 345.164062 87.90625 C 344.449219 87.269531 343.6875 86.753906 342.988281 86.394531 C 342.285156 86.035156 341.667969 85.8125 341.128906 85.804688 L 341.125 86.304688 L 341.371094 85.867188 L 341.117188 85.800781 C 340.832031 85.796875 340.511719 85.886719 340.300781 86.128906 C 340.09375 86.371094 340.050781 86.652344 340.046875 86.90625 C 340.050781 87.253906 340.132812 87.621094 340.242188 88.046875 C 340.566406 89.300781 341.175781 91.058594 341.171875 92.972656 L 341.171875 93.023438 C 341.167969 94.316406 340.882812 95.535156 340.589844 96.574219 C 340.445312 97.097656 340.296875 97.574219 340.183594 97.996094 C 340.070312 98.421875 339.984375 98.792969 339.980469 99.148438 C 339.980469 99.398438 340.027344 99.679688 340.238281 99.917969 C 340.449219 100.160156 340.761719 100.246094 341.046875 100.242188 C 341.183594 100.242188 341.3125 100.191406 341.40625 100.097656 L 341.050781 99.742188 "/>
<path style=" stroke:none;fill-rule:nonzero;fill:rgb(45.098877%,45.098877%,45.098877%);fill-opacity:1;" d="M 322.296875 111.1875 C 321.886719 109.667969 326.984375 110.523438 332.585938 109.011719 C 338.183594 107.496094 342.164062 104.191406 342.570312 105.707031 C 342.980469 107.226562 339.667969 112.988281 334.0625 114.5 C 328.464844 116.011719 322.707031 112.699219 322.296875 111.1875 "/>
<path style=" stroke:none;fill-rule:nonzero;fill:rgb(100%,100%,100%);fill-opacity:1;" d="M 324.574219 119.085938 C 324.558594 121.796875 322.351562 123.980469 319.640625 123.964844 C 316.929688 123.949219 314.75 121.738281 314.765625 119.03125 C 314.78125 116.320312 316.988281 114.136719 319.691406 114.148438 C 322.40625 114.164062 324.589844 116.371094 324.574219 119.085938 "/>
<path style=" stroke:none;fill-rule:nonzero;fill:rgb(45.098877%,45.098877%,45.098877%);fill-opacity:1;" d="M 324.574219 119.085938 L 324.074219 119.082031 C 324.0625 121.507812 322.09375 123.464844 319.667969 123.464844 L 319.648438 123.464844 L 319.5625 123.46875 L 319.640625 123.964844 L 319.640625 123.464844 C 317.21875 123.453125 315.261719 121.480469 315.261719 119.054688 L 315.261719 119.035156 C 315.273438 116.605469 317.25 114.648438 319.667969 114.648438 L 319.679688 114.648438 L 319.675781 114.253906 L 319.609375 114.640625 L 319.679688 114.648438 L 319.675781 114.253906 L 319.609375 114.640625 L 319.691406 114.648438 C 322.121094 114.660156 324.078125 116.632812 324.074219 119.058594 L 324.074219 119.085938 L 324.074219 119.082031 L 324.574219 119.085938 L 325.074219 119.085938 L 325.074219 119.058594 C 325.074219 116.082031 322.675781 113.664062 319.695312 113.648438 L 319.691406 114.148438 L 319.777344 113.65625 L 319.6875 113.648438 L 319.667969 113.648438 C 316.699219 113.648438 314.28125 116.050781 314.265625 119.027344 L 314.765625 119.03125 L 314.265625 119.019531 L 314.265625 119.054688 C 314.265625 122.027344 316.660156 124.449219 319.636719 124.464844 L 319.714844 124.457031 L 319.65625 124.066406 L 319.660156 124.464844 L 319.714844 124.457031 L 319.65625 124.066406 L 319.660156 124.464844 L 319.660156 124.289062 L 319.65625 124.464844 L 319.660156 124.464844 L 319.660156 124.289062 L 319.65625 124.464844 L 319.667969 124.464844 C 322.644531 124.464844 325.058594 122.0625 325.074219 119.089844 L 324.574219 119.085938 "/>
<path style=" stroke:none;fill-rule:nonzero;fill:rgb(45.098877%,45.098877%,45.098877%);fill-opacity:1;" d="M 322.894531 119.074219 C 322.882812 120.855469 321.429688 122.292969 319.648438 122.28125 C 317.871094 122.273438 316.433594 120.820312 316.445312 119.042969 C 316.453125 117.257812 317.90625 115.820312 319.6875 115.832031 C 321.46875 115.84375 322.902344 117.292969 322.894531 119.074219 "/>
<path style=" stroke:none;fill-rule:nonzero;fill:rgb(45.098877%,45.098877%,45.098877%);fill-opacity:1;" d="M 305.109375 90.09375 L 209.199219 89.566406 L 191.152344 79.15625 L 189.019531 60.242188 C 207.914062 55.359375 233.933594 53.007812 251.59375 53.007812 C 251.605469 53.007812 251.613281 53.007812 251.625 53.007812 C 253.664062 53.007812 255.59375 53.039062 257.386719 53.101562 L 257.417969 53.101562 C 258.585938 53.074219 259.820312 53.058594 261.101562 53.058594 C 274.28125 53.058594 292.867188 54.527344 309.601562 57.480469 C 315.242188 58.476562 320.671875 59.640625 325.617188 60.96875 L 323.273438 79.886719 L 305.109375 90.09375 "/>
<path style=" stroke:none;fill-rule:nonzero;fill:rgb(45.098877%,45.098877%,45.098877%);fill-opacity:1;" d="M 325.617188 60.96875 C 320.671875 59.640625 315.242188 58.476562 309.601562 57.480469 C 292.867188 54.527344 274.28125 53.058594 261.101562 53.058594 C 259.820312 53.058594 258.585938 53.074219 257.417969 53.101562 L 257.386719 53.101562 C 255.59375 53.039062 253.664062 53.007812 251.625 53.007812 C 251.613281 53.007812 251.605469 53.007812 251.59375 53.007812 C 233.933594 53.007812 207.914062 55.359375 189.019531 60.242188 L 189.003906 60.117188 C 208.078125 54.976562 234.933594 52.515625 253.054688 52.515625 C 255.097656 52.515625 257.035156 52.546875 258.832031 52.609375 C 260.011719 52.582031 261.242188 52.566406 262.523438 52.566406 C 279.761719 52.566406 306.175781 55.070312 325.722656 60.117188 L 325.617188 60.96875 "/>
<path style=" stroke:none;fill-rule:nonzero;fill:rgb(45.098877%,45.098877%,45.098877%);fill-opacity:1;" d="M 5.242188 207.609375 C 5.242188 211.089844 8.183594 213.910156 11.8125 213.910156 L 363.1875 213.910156 C 366.816406 213.910156 369.757812 211.089844 369.757812 207.609375 C 369.757812 204.128906 366.816406 201.308594 363.1875 201.308594 L 11.8125 201.308594 C 8.183594 201.308594 5.242188 204.128906 5.242188 207.609375 "/>
<path style=" stroke:none;fill-rule:nonzero;fill:rgb(100%,100%,100%);fill-opacity:1;" d="M 5.242188 207.609375 L 4.742188 207.609375 C 4.742188 209.488281 5.539062 211.199219 6.820312 212.425781 C 8.101562 213.652344 9.867188 214.410156 11.8125 214.410156 L 363.1875 214.410156 C 365.132812 214.410156 366.898438 213.652344 368.179688 212.425781 C 369.460938 211.199219 370.257812 209.488281 370.257812 207.609375 C 370.257812 205.726562 369.460938 204.019531 368.179688 202.792969 C 366.898438 201.566406 365.132812 200.808594 363.1875 200.808594 L 11.8125 200.808594 C 9.867188 200.808594 8.101562 201.566406 6.820312 202.792969 C 5.539062 204.019531 4.742188 205.726562 4.742188 207.609375 L 5.742188 207.609375 C 5.742188 206.011719 6.410156 204.570312 7.511719 203.515625 C 8.609375 202.460938 10.128906 201.808594 11.8125 201.808594 L 363.1875 201.808594 C 364.871094 201.808594 366.390625 202.460938 367.488281 203.515625 C 368.585938 204.570312 369.257812 206.011719 369.257812 207.609375 C 369.257812 209.203125 368.585938 210.648438 367.488281 211.703125 C 366.390625 212.757812 364.871094 213.410156 363.1875 213.410156 L 11.8125 213.410156 C 10.128906 213.410156 8.609375 212.757812 7.511719 211.703125 C 6.410156 210.648438 5.742188 209.203125 5.742188 207.609375 L 5.242188 207.609375 "/>
<path style=" stroke:none;fill-rule:nonzero;fill:rgb(45.098877%,45.098877%,45.098877%);fill-opacity:1;" d="M 167.015625 160.902344 C 167.015625 163.507812 169.128906 165.625 171.734375 165.625 L 344.621094 165.625 C 347.222656 165.625 349.339844 163.507812 349.339844 160.902344 C 349.339844 158.292969 347.222656 156.175781 344.621094 156.175781 L 171.734375 156.175781 C 169.128906 156.175781 167.015625 158.292969 167.015625 160.902344 "/>
<path style=" stroke:none;fill-rule:nonzero;fill:rgb(100%,100%,100%);fill-opacity:1;" d="M 167.015625 160.902344 L 166.515625 160.902344 C 166.515625 163.785156 168.855469 166.125 171.734375 166.125 L 344.621094 166.125 C 347.5 166.125 349.839844 163.785156 349.839844 160.902344 C 349.839844 158.015625 347.5 155.675781 344.621094 155.675781 L 171.734375 155.675781 C 168.855469 155.675781 166.515625 158.015625 166.515625 160.902344 L 167.515625 160.902344 C 167.515625 159.734375 167.988281 158.679688 168.753906 157.914062 C 169.515625 157.148438 170.566406 156.675781 171.734375 156.675781 L 344.621094 156.675781 C 345.789062 156.675781 346.835938 157.148438 347.601562 157.914062 C 348.367188 158.679688 348.839844 159.734375 348.839844 160.902344 C 348.839844 162.070312 348.367188 163.125 347.601562 163.886719 C 346.835938 164.652344 345.789062 165.125 344.621094 165.125 L 171.734375 165.125 C 170.566406 165.125 169.515625 164.652344 168.753906 163.886719 C 167.988281 163.125 167.515625 162.070312 167.515625 160.902344 L 167.015625 160.902344 "/>
</g>
</svg>
